G75*
%MOIN*%
%OFA0B0*%
%FSLAX24Y24*%
%IPPOS*%
%LPD*%
%AMOC8*
5,1,8,0,0,1.08239X$1,22.5*
%
%ADD10C,0.0000*%
%ADD11C,0.0520*%
%ADD12C,0.0520*%
%ADD13R,0.0709X0.0551*%
%ADD14C,0.0740*%
%ADD15C,0.1266*%
%ADD16R,0.0591X0.0512*%
%ADD17OC8,0.0560*%
%ADD18C,0.0160*%
%ADD19C,0.0356*%
D10*
X000980Y006148D02*
X000980Y025648D01*
X007280Y025648D01*
X007280Y006148D01*
X000980Y006148D01*
X003002Y007109D02*
X003004Y007138D01*
X003010Y007166D01*
X003019Y007194D01*
X003032Y007220D01*
X003049Y007243D01*
X003068Y007265D01*
X003090Y007284D01*
X003115Y007299D01*
X003141Y007312D01*
X003169Y007320D01*
X003197Y007325D01*
X003226Y007326D01*
X003255Y007323D01*
X003283Y007316D01*
X003310Y007306D01*
X003336Y007292D01*
X003359Y007275D01*
X003380Y007255D01*
X003398Y007232D01*
X003413Y007207D01*
X003424Y007180D01*
X003432Y007152D01*
X003436Y007123D01*
X003436Y007095D01*
X003432Y007066D01*
X003424Y007038D01*
X003413Y007011D01*
X003398Y006986D01*
X003380Y006963D01*
X003359Y006943D01*
X003336Y006926D01*
X003310Y006912D01*
X003283Y006902D01*
X003255Y006895D01*
X003226Y006892D01*
X003197Y006893D01*
X003169Y006898D01*
X003141Y006906D01*
X003115Y006919D01*
X003090Y006934D01*
X003068Y006953D01*
X003049Y006975D01*
X003032Y006998D01*
X003019Y007024D01*
X003010Y007052D01*
X003004Y007080D01*
X003002Y007109D01*
X004774Y007109D02*
X004776Y007138D01*
X004782Y007166D01*
X004791Y007194D01*
X004804Y007220D01*
X004821Y007243D01*
X004840Y007265D01*
X004862Y007284D01*
X004887Y007299D01*
X004913Y007312D01*
X004941Y007320D01*
X004969Y007325D01*
X004998Y007326D01*
X005027Y007323D01*
X005055Y007316D01*
X005082Y007306D01*
X005108Y007292D01*
X005131Y007275D01*
X005152Y007255D01*
X005170Y007232D01*
X005185Y007207D01*
X005196Y007180D01*
X005204Y007152D01*
X005208Y007123D01*
X005208Y007095D01*
X005204Y007066D01*
X005196Y007038D01*
X005185Y007011D01*
X005170Y006986D01*
X005152Y006963D01*
X005131Y006943D01*
X005108Y006926D01*
X005082Y006912D01*
X005055Y006902D01*
X005027Y006895D01*
X004998Y006892D01*
X004969Y006893D01*
X004941Y006898D01*
X004913Y006906D01*
X004887Y006919D01*
X004862Y006934D01*
X004840Y006953D01*
X004821Y006975D01*
X004804Y006998D01*
X004791Y007024D01*
X004782Y007052D01*
X004776Y007080D01*
X004774Y007109D01*
D11*
X005055Y011773D03*
X003155Y011773D03*
D12*
X004345Y019273D02*
X004865Y019273D01*
X004865Y020273D02*
X004345Y020273D01*
X004345Y021273D02*
X004865Y021273D01*
X001865Y021273D02*
X001345Y021273D01*
X001345Y020273D02*
X001865Y020273D01*
X001865Y019273D02*
X001345Y019273D01*
D13*
X002230Y010317D03*
X002230Y008979D03*
X005980Y008979D03*
X005980Y010317D03*
D14*
X005483Y008093D03*
X004549Y008093D03*
X003661Y008093D03*
X002727Y008093D03*
D15*
X001822Y007148D03*
X006388Y007148D03*
D16*
X006480Y011274D03*
X006480Y012022D03*
X004230Y014813D03*
X004230Y015483D03*
X004105Y009983D03*
X004105Y009313D03*
X001730Y011274D03*
X001730Y012022D03*
X002668Y022313D03*
X002668Y022983D03*
X005105Y022983D03*
X005105Y022313D03*
X005980Y022313D03*
X005980Y022983D03*
D17*
X006130Y023898D03*
X006130Y024898D03*
X005130Y024898D03*
X005130Y023898D03*
X004130Y023898D03*
X004130Y024898D03*
X003130Y024898D03*
X003130Y023898D03*
X002130Y023898D03*
X002130Y024898D03*
D18*
X001900Y024534D02*
X001160Y024534D01*
X001160Y024692D02*
X001742Y024692D01*
X001710Y024724D02*
X001710Y025072D01*
X001956Y025318D01*
X002304Y025318D01*
X002550Y025072D01*
X002550Y024724D01*
X002304Y024478D01*
X001956Y024478D01*
X001710Y024724D01*
X001710Y024851D02*
X001160Y024851D01*
X001160Y025009D02*
X001710Y025009D01*
X001806Y025168D02*
X001160Y025168D01*
X001160Y025326D02*
X004908Y025326D01*
X004939Y025358D02*
X004670Y025088D01*
X004670Y024908D01*
X005120Y024908D01*
X005120Y025358D01*
X004939Y025358D01*
X005120Y025326D02*
X005140Y025326D01*
X005140Y025358D02*
X005321Y025358D01*
X005590Y025088D01*
X005590Y024908D01*
X005140Y024908D01*
X005120Y024908D01*
X005120Y024888D01*
X004670Y024888D01*
X004670Y024707D01*
X004939Y024438D01*
X005120Y024438D01*
X005120Y024888D01*
X005140Y024888D01*
X005140Y024908D01*
X005140Y025358D01*
X005140Y025168D02*
X005120Y025168D01*
X005120Y025009D02*
X005140Y025009D01*
X005140Y024888D02*
X005590Y024888D01*
X005590Y024707D01*
X005321Y024438D01*
X005140Y024438D01*
X005140Y024888D01*
X005140Y024851D02*
X005120Y024851D01*
X005120Y024692D02*
X005140Y024692D01*
X005140Y024534D02*
X005120Y024534D01*
X004956Y024318D02*
X004710Y024072D01*
X004710Y023724D01*
X004956Y023478D01*
X005304Y023478D01*
X005384Y023558D01*
X005595Y023347D01*
X005545Y023296D01*
X005545Y023203D01*
X005540Y023203D01*
X005540Y023296D01*
X005458Y023378D01*
X004752Y023378D01*
X004670Y023296D01*
X004670Y023024D01*
X004514Y022868D01*
X004385Y022739D01*
X004385Y021673D01*
X004265Y021673D01*
X004118Y021612D01*
X004006Y021499D01*
X003945Y021352D01*
X003945Y021193D01*
X004006Y021046D01*
X004118Y020934D01*
X004265Y020873D01*
X004945Y020873D01*
X005092Y020934D01*
X005204Y021046D01*
X005265Y021193D01*
X005265Y021216D01*
X005292Y021205D01*
X005418Y021205D01*
X005535Y021253D01*
X005625Y021343D01*
X005671Y021455D01*
X005793Y021455D01*
X005910Y021503D01*
X006000Y021593D01*
X006048Y021710D01*
X006048Y021780D01*
X006186Y021917D01*
X006260Y021917D01*
X006260Y016503D01*
X006210Y016453D01*
X006162Y016336D01*
X006162Y016210D01*
X006210Y016093D01*
X006300Y016003D01*
X006417Y015955D01*
X006543Y015955D01*
X006660Y016003D01*
X006698Y016040D01*
X006698Y015815D01*
X006648Y015766D01*
X006599Y015649D01*
X006599Y015522D01*
X006648Y015405D01*
X006737Y015316D01*
X006854Y015267D01*
X006981Y015267D01*
X007098Y015316D01*
X007100Y015318D01*
X007100Y007450D01*
X007044Y007586D01*
X006826Y007803D01*
X006542Y007921D01*
X006314Y007921D01*
X006821Y008428D01*
X006950Y008557D01*
X006950Y009489D01*
X006700Y009739D01*
X006571Y009868D01*
X006382Y009868D01*
X006404Y009874D01*
X006445Y009898D01*
X006478Y009931D01*
X006502Y009972D01*
X006514Y010018D01*
X006514Y010259D01*
X006038Y010259D01*
X006038Y010375D01*
X006514Y010375D01*
X006514Y010616D01*
X006502Y010662D01*
X006478Y010703D01*
X006445Y010737D01*
X006404Y010760D01*
X006358Y010773D01*
X006038Y010773D01*
X006038Y010375D01*
X005922Y010375D01*
X005922Y010259D01*
X005446Y010259D01*
X005446Y010018D01*
X005458Y009972D01*
X005482Y009931D01*
X005515Y009898D01*
X005556Y009874D01*
X005578Y009868D01*
X005196Y009868D01*
X005075Y009989D01*
X004946Y010118D01*
X004540Y010118D01*
X004540Y010296D01*
X004458Y010378D01*
X004020Y010378D01*
X003288Y011111D01*
X003250Y011203D01*
X003160Y011293D01*
X003043Y011341D01*
X002917Y011341D01*
X002800Y011293D01*
X002710Y011203D01*
X002662Y011086D01*
X002662Y010960D01*
X002710Y010843D01*
X002800Y010753D01*
X002917Y010705D01*
X003043Y010705D01*
X003063Y010713D01*
X003670Y010107D01*
X003670Y009669D01*
X003690Y009648D01*
X003670Y009627D01*
X003670Y008999D01*
X003752Y008917D01*
X003885Y008917D01*
X003885Y008552D01*
X003763Y008603D01*
X003560Y008603D01*
X003491Y008574D01*
X002867Y009199D01*
X002724Y009199D01*
X002724Y009312D01*
X002642Y009394D01*
X001818Y009394D01*
X001736Y009312D01*
X001736Y008645D01*
X001818Y008563D01*
X002439Y008563D01*
X002369Y008512D01*
X002308Y008451D01*
X002257Y008381D01*
X002217Y008304D01*
X002191Y008222D01*
X002177Y008136D01*
X002177Y008103D01*
X002717Y008103D01*
X002717Y008638D01*
X002724Y008645D01*
X002724Y008719D01*
X002806Y008637D01*
X002770Y008643D01*
X002737Y008643D01*
X002737Y008103D01*
X002717Y008103D01*
X002717Y008083D01*
X002177Y008083D01*
X002177Y008049D01*
X002191Y007964D01*
X002217Y007882D01*
X002257Y007804D01*
X001975Y007921D01*
X001668Y007921D01*
X001384Y007803D01*
X001166Y007586D01*
X001160Y007571D01*
X001160Y018917D01*
X001265Y018873D01*
X001385Y018873D01*
X001385Y017328D01*
X001300Y017293D01*
X001210Y017203D01*
X001162Y017086D01*
X001162Y016960D01*
X001210Y016843D01*
X001260Y016793D01*
X001260Y015369D01*
X001389Y015240D01*
X002639Y013990D01*
X005889Y013990D01*
X005914Y013965D01*
X005800Y013918D01*
X005710Y013828D01*
X005662Y013711D01*
X005662Y013641D01*
X004135Y012114D01*
X004135Y011253D01*
X004085Y011203D01*
X004037Y011086D01*
X004037Y010960D01*
X004085Y010843D01*
X004175Y010753D01*
X004292Y010705D01*
X004418Y010705D01*
X004535Y010753D01*
X004625Y010843D01*
X004673Y010960D01*
X004673Y011086D01*
X004625Y011203D01*
X004575Y011253D01*
X004575Y011932D01*
X005973Y013330D01*
X006043Y013330D01*
X006135Y013368D01*
X006135Y013315D01*
X006085Y013266D01*
X006037Y013149D01*
X006037Y013022D01*
X006085Y012905D01*
X006175Y012816D01*
X006292Y012767D01*
X006418Y012767D01*
X006535Y012816D01*
X006625Y012905D01*
X006673Y013022D01*
X006673Y013149D01*
X006625Y013266D01*
X006575Y013315D01*
X006575Y013927D01*
X006200Y014302D01*
X006071Y014430D01*
X004596Y014430D01*
X004665Y014499D01*
X004665Y014593D01*
X004936Y014593D01*
X004942Y014588D01*
X005027Y014593D01*
X005111Y014593D01*
X005117Y014598D01*
X005124Y014599D01*
X005180Y014662D01*
X005240Y014722D01*
X005240Y014729D01*
X005553Y015080D01*
X005606Y015080D01*
X005723Y015128D01*
X005812Y015218D01*
X005861Y015335D01*
X005861Y015461D01*
X005812Y015578D01*
X005723Y015668D01*
X005606Y015716D01*
X005479Y015716D01*
X005362Y015668D01*
X005273Y015578D01*
X005224Y015461D01*
X005224Y015372D01*
X004922Y015033D01*
X004665Y015033D01*
X004665Y015127D01*
X004645Y015148D01*
X004665Y015169D01*
X004665Y015796D01*
X004583Y015878D01*
X004450Y015878D01*
X004450Y015918D01*
X004500Y015968D01*
X004548Y016085D01*
X004548Y016155D01*
X004696Y016303D01*
X004825Y016432D01*
X004825Y018873D01*
X004945Y018873D01*
X005092Y018934D01*
X005204Y019046D01*
X005265Y019193D01*
X005265Y019352D01*
X005204Y019499D01*
X005092Y019612D01*
X004945Y019673D01*
X004265Y019673D01*
X004118Y019612D01*
X004006Y019499D01*
X003945Y019352D01*
X003945Y019193D01*
X004006Y019046D01*
X004118Y018934D01*
X004265Y018873D01*
X004385Y018873D01*
X004385Y016614D01*
X004237Y016466D01*
X004167Y016466D01*
X004050Y016418D01*
X003960Y016328D01*
X003912Y016211D01*
X003912Y016085D01*
X003960Y015968D01*
X004010Y015918D01*
X004010Y015878D01*
X003877Y015878D01*
X003795Y015796D01*
X003795Y015169D01*
X003815Y015148D01*
X003795Y015127D01*
X003795Y014993D01*
X003514Y014993D01*
X003424Y014903D01*
X003354Y014903D01*
X003237Y014855D01*
X003148Y014766D01*
X003099Y014649D01*
X003099Y014522D01*
X003137Y014430D01*
X002821Y014430D01*
X001700Y015552D01*
X001700Y016793D01*
X001750Y016843D01*
X001779Y016913D01*
X003099Y015592D01*
X003099Y015522D01*
X003148Y015405D01*
X003237Y015316D01*
X003354Y015267D01*
X003481Y015267D01*
X003598Y015316D01*
X003687Y015405D01*
X003736Y015522D01*
X003736Y015649D01*
X003687Y015766D01*
X003598Y015855D01*
X003481Y015903D01*
X003411Y015903D01*
X001825Y017489D01*
X001825Y018873D01*
X001945Y018873D01*
X002092Y018934D01*
X002204Y019046D01*
X002265Y019193D01*
X002265Y019352D01*
X002204Y019499D01*
X002092Y019612D01*
X001945Y019673D01*
X001265Y019673D01*
X001160Y019629D01*
X001160Y019873D01*
X001176Y019865D01*
X001242Y019844D01*
X001310Y019833D01*
X001605Y019833D01*
X001900Y019833D01*
X001968Y019844D01*
X002034Y019865D01*
X002096Y019897D01*
X002152Y019937D01*
X002201Y019986D01*
X002241Y020042D01*
X002273Y020104D01*
X002294Y020170D01*
X002305Y020238D01*
X002305Y020273D01*
X002305Y020308D01*
X002294Y020376D01*
X002273Y020442D01*
X002241Y020503D01*
X002201Y020560D01*
X002152Y020608D01*
X002096Y020649D01*
X002034Y020681D01*
X001968Y020702D01*
X001900Y020713D01*
X001605Y020713D01*
X001310Y020713D01*
X001242Y020702D01*
X001176Y020681D01*
X001160Y020672D01*
X001160Y020917D01*
X001265Y020873D01*
X001945Y020873D01*
X002092Y020934D01*
X002204Y021046D01*
X002265Y021193D01*
X002265Y021352D01*
X002204Y021499D01*
X002092Y021612D01*
X001945Y021673D01*
X001265Y021673D01*
X001160Y021629D01*
X001160Y025468D01*
X007100Y025468D01*
X007100Y023714D01*
X006825Y023989D01*
X006696Y024118D01*
X006504Y024118D01*
X006304Y024318D01*
X005956Y024318D01*
X005710Y024072D01*
X005710Y023854D01*
X005550Y024014D01*
X005550Y024072D01*
X005304Y024318D01*
X004956Y024318D01*
X004855Y024217D02*
X004405Y024217D01*
X004304Y024318D02*
X003956Y024318D01*
X003887Y024249D01*
X003887Y024432D01*
X003945Y024489D01*
X003956Y024478D01*
X004304Y024478D01*
X004550Y024724D01*
X004550Y025072D01*
X004304Y025318D01*
X003956Y025318D01*
X003710Y025072D01*
X003710Y024876D01*
X003576Y024743D01*
X003448Y024614D01*
X003448Y024174D01*
X003304Y024318D01*
X002956Y024318D01*
X002887Y024249D01*
X002887Y024307D01*
X003059Y024478D01*
X003304Y024478D01*
X003550Y024724D01*
X003550Y025072D01*
X003304Y025318D01*
X002956Y025318D01*
X002710Y025072D01*
X002710Y024751D01*
X002448Y024489D01*
X002448Y024174D01*
X002304Y024318D01*
X001956Y024318D01*
X001710Y024072D01*
X001710Y023724D01*
X001948Y023486D01*
X001948Y021932D01*
X002076Y021803D01*
X002510Y021369D01*
X002510Y018503D01*
X002460Y018453D01*
X002412Y018336D01*
X002412Y018210D01*
X002460Y018093D01*
X002550Y018003D01*
X002667Y017955D01*
X002788Y017955D01*
X002737Y017903D01*
X002667Y017903D01*
X002550Y017855D01*
X002460Y017766D01*
X002412Y017649D01*
X002412Y017522D01*
X002460Y017405D01*
X002550Y017316D01*
X002667Y017267D01*
X002793Y017267D01*
X002910Y017316D01*
X003000Y017405D01*
X003048Y017522D01*
X003048Y017592D01*
X003162Y017706D01*
X003162Y017585D01*
X003210Y017468D01*
X003300Y017378D01*
X003417Y017330D01*
X003543Y017330D01*
X003660Y017378D01*
X003750Y017468D01*
X003798Y017585D01*
X003798Y017655D01*
X003887Y017744D01*
X003887Y023546D01*
X003956Y023478D01*
X004304Y023478D01*
X004550Y023724D01*
X004550Y024072D01*
X004304Y024318D01*
X004360Y024534D02*
X004843Y024534D01*
X004685Y024692D02*
X004518Y024692D01*
X004550Y024851D02*
X004670Y024851D01*
X004670Y025009D02*
X004550Y025009D01*
X004454Y025168D02*
X004749Y025168D01*
X004710Y024058D02*
X004550Y024058D01*
X004550Y023900D02*
X004710Y023900D01*
X004710Y023741D02*
X004550Y023741D01*
X004409Y023583D02*
X004851Y023583D01*
X004670Y023266D02*
X003887Y023266D01*
X003887Y023424D02*
X005517Y023424D01*
X005540Y023266D02*
X005545Y023266D01*
X005664Y023900D02*
X005710Y023900D01*
X005710Y024058D02*
X005550Y024058D01*
X005405Y024217D02*
X005855Y024217D01*
X005939Y024438D02*
X006120Y024438D01*
X006120Y024888D01*
X005670Y024888D01*
X005670Y024707D01*
X005939Y024438D01*
X005843Y024534D02*
X005417Y024534D01*
X005575Y024692D02*
X005685Y024692D01*
X005670Y024851D02*
X005590Y024851D01*
X005670Y024908D02*
X005670Y025088D01*
X005939Y025358D01*
X006120Y025358D01*
X006120Y024908D01*
X006140Y024908D01*
X006140Y025358D01*
X006321Y025358D01*
X006590Y025088D01*
X006590Y024908D01*
X006140Y024908D01*
X006140Y024888D01*
X006590Y024888D01*
X006590Y024707D01*
X006321Y024438D01*
X006140Y024438D01*
X006140Y024888D01*
X006120Y024888D01*
X006120Y024908D01*
X005670Y024908D01*
X005670Y025009D02*
X005590Y025009D01*
X005511Y025168D02*
X005749Y025168D01*
X005908Y025326D02*
X005352Y025326D01*
X005355Y023898D02*
X005130Y023898D01*
X005355Y023898D02*
X005855Y023398D01*
X006355Y023398D01*
X006480Y023273D01*
X006480Y016273D01*
X006368Y015975D02*
X004503Y015975D01*
X004548Y016133D02*
X006193Y016133D01*
X006162Y016292D02*
X004685Y016292D01*
X004605Y016523D02*
X004605Y019273D01*
X004385Y018828D02*
X003887Y018828D01*
X003887Y018986D02*
X004066Y018986D01*
X003965Y019145D02*
X003887Y019145D01*
X003887Y019303D02*
X003945Y019303D01*
X003990Y019462D02*
X003887Y019462D01*
X003887Y019620D02*
X004139Y019620D01*
X004265Y019873D02*
X004118Y019934D01*
X004006Y020046D01*
X003945Y020193D01*
X003945Y020352D01*
X004006Y020499D01*
X004118Y020612D01*
X004265Y020673D01*
X004945Y020673D01*
X005092Y020612D01*
X005204Y020499D01*
X005265Y020352D01*
X005265Y020193D01*
X005204Y020046D01*
X005092Y019934D01*
X004945Y019873D01*
X004265Y019873D01*
X004115Y019937D02*
X003887Y019937D01*
X003887Y019779D02*
X006260Y019779D01*
X006260Y019937D02*
X005095Y019937D01*
X005071Y019620D02*
X006260Y019620D01*
X006260Y019462D02*
X005220Y019462D01*
X005265Y019303D02*
X006260Y019303D01*
X006260Y019145D02*
X005245Y019145D01*
X005144Y018986D02*
X006260Y018986D01*
X006260Y018828D02*
X004825Y018828D01*
X004825Y018669D02*
X006260Y018669D01*
X006260Y018511D02*
X004825Y018511D01*
X004825Y018352D02*
X006260Y018352D01*
X006260Y018194D02*
X004825Y018194D01*
X004825Y018035D02*
X006260Y018035D01*
X006260Y017877D02*
X004825Y017877D01*
X004825Y017718D02*
X006260Y017718D01*
X006260Y017560D02*
X004825Y017560D01*
X004825Y017401D02*
X006260Y017401D01*
X006260Y017243D02*
X004825Y017243D01*
X004825Y017084D02*
X006260Y017084D01*
X006260Y016926D02*
X004825Y016926D01*
X004825Y016767D02*
X006260Y016767D01*
X006260Y016609D02*
X004825Y016609D01*
X004825Y016450D02*
X006209Y016450D01*
X006592Y015975D02*
X006698Y015975D01*
X006698Y015816D02*
X004645Y015816D01*
X004665Y015658D02*
X005353Y015658D01*
X005240Y015499D02*
X004665Y015499D01*
X004665Y015341D02*
X005197Y015341D01*
X005055Y015182D02*
X004665Y015182D01*
X004665Y014548D02*
X007100Y014548D01*
X007100Y014390D02*
X006112Y014390D01*
X005980Y014210D02*
X002730Y014210D01*
X001480Y015460D01*
X001480Y017023D01*
X001385Y017401D02*
X001160Y017401D01*
X001160Y017243D02*
X001250Y017243D01*
X001162Y017084D02*
X001160Y017084D01*
X001160Y016926D02*
X001176Y016926D01*
X001160Y016767D02*
X001260Y016767D01*
X001260Y016609D02*
X001160Y016609D01*
X001160Y016450D02*
X001260Y016450D01*
X001260Y016292D02*
X001160Y016292D01*
X001160Y016133D02*
X001260Y016133D01*
X001260Y015975D02*
X001160Y015975D01*
X001160Y015816D02*
X001260Y015816D01*
X001260Y015658D02*
X001160Y015658D01*
X001160Y015499D02*
X001260Y015499D01*
X001288Y015341D02*
X001160Y015341D01*
X001160Y015182D02*
X001447Y015182D01*
X001605Y015024D02*
X001160Y015024D01*
X001160Y014865D02*
X001764Y014865D01*
X001922Y014707D02*
X001160Y014707D01*
X001160Y014548D02*
X002081Y014548D01*
X002239Y014390D02*
X001160Y014390D01*
X001160Y014231D02*
X002398Y014231D01*
X002556Y014073D02*
X001160Y014073D01*
X001160Y013914D02*
X005797Y013914D01*
X005680Y013756D02*
X001160Y013756D01*
X001160Y013597D02*
X005618Y013597D01*
X005460Y013439D02*
X001160Y013439D01*
X001160Y013280D02*
X005301Y013280D01*
X005143Y013122D02*
X001160Y013122D01*
X001160Y012963D02*
X004984Y012963D01*
X004826Y012805D02*
X001160Y012805D01*
X001160Y012646D02*
X004667Y012646D01*
X004509Y012488D02*
X001160Y012488D01*
X001160Y012329D02*
X001295Y012329D01*
X001295Y012336D02*
X001295Y011708D01*
X001327Y011676D01*
X001324Y011674D01*
X001291Y011640D01*
X001267Y011599D01*
X001255Y011553D01*
X001255Y011322D01*
X001682Y011322D01*
X001682Y011226D01*
X001255Y011226D01*
X001255Y010994D01*
X001267Y010948D01*
X001291Y010907D01*
X001324Y010874D01*
X001365Y010850D01*
X001411Y010838D01*
X001682Y010838D01*
X001682Y011226D01*
X001778Y011226D01*
X001778Y011322D01*
X002205Y011322D01*
X002205Y011553D01*
X002193Y011599D01*
X002169Y011640D01*
X002136Y011674D01*
X002133Y011676D01*
X002165Y011708D01*
X002165Y011802D01*
X002755Y011802D01*
X002755Y011693D01*
X002816Y011546D01*
X002928Y011434D01*
X003075Y011373D01*
X003235Y011373D01*
X003382Y011434D01*
X003494Y011546D01*
X003555Y011693D01*
X003555Y011852D01*
X003494Y011999D01*
X003382Y012112D01*
X003235Y012173D01*
X003075Y012173D01*
X003069Y012170D01*
X002997Y012242D01*
X002165Y012242D01*
X002165Y012336D01*
X002083Y012418D01*
X001377Y012418D01*
X001295Y012336D01*
X001295Y012171D02*
X001160Y012171D01*
X001160Y012012D02*
X001295Y012012D01*
X001295Y011854D02*
X001160Y011854D01*
X001160Y011695D02*
X001307Y011695D01*
X001255Y011537D02*
X001160Y011537D01*
X001160Y011378D02*
X001255Y011378D01*
X001255Y011220D02*
X001160Y011220D01*
X001160Y011061D02*
X001255Y011061D01*
X001295Y010903D02*
X001160Y010903D01*
X001160Y010744D02*
X001778Y010744D01*
X001765Y010737D02*
X001732Y010703D01*
X001708Y010662D01*
X001696Y010616D01*
X001696Y010375D01*
X002172Y010375D01*
X002172Y010259D01*
X002288Y010259D01*
X002288Y009862D01*
X002608Y009862D01*
X002654Y009874D01*
X002695Y009898D01*
X002728Y009931D01*
X002752Y009972D01*
X002764Y010018D01*
X002764Y010259D01*
X002288Y010259D01*
X002288Y010375D01*
X002764Y010375D01*
X002764Y010616D01*
X002752Y010662D01*
X002728Y010703D01*
X002695Y010737D01*
X002654Y010760D01*
X002608Y010773D01*
X002288Y010773D01*
X002288Y010375D01*
X002172Y010375D01*
X002172Y010773D01*
X001852Y010773D01*
X001806Y010760D01*
X001765Y010737D01*
X001778Y010838D02*
X002049Y010838D01*
X002095Y010850D01*
X002136Y010874D01*
X002169Y010907D01*
X002193Y010948D01*
X002205Y010994D01*
X002205Y011226D01*
X001778Y011226D01*
X001778Y010838D01*
X001778Y010903D02*
X001682Y010903D01*
X001682Y011061D02*
X001778Y011061D01*
X001778Y011220D02*
X001682Y011220D01*
X001696Y010586D02*
X001160Y010586D01*
X001160Y010427D02*
X001696Y010427D01*
X001696Y010259D02*
X001696Y010018D01*
X001708Y009972D01*
X001732Y009931D01*
X001765Y009898D01*
X001806Y009874D01*
X001852Y009862D01*
X002172Y009862D01*
X002172Y010259D01*
X001696Y010259D01*
X001696Y010110D02*
X001160Y010110D01*
X001160Y009952D02*
X001720Y009952D01*
X001741Y009318D02*
X001160Y009318D01*
X001160Y009476D02*
X003670Y009476D01*
X003670Y009318D02*
X002719Y009318D01*
X002775Y008979D02*
X003661Y008093D01*
X003560Y007583D02*
X003372Y007660D01*
X003229Y007804D01*
X003215Y007838D01*
X003197Y007804D01*
X003147Y007734D01*
X003085Y007673D01*
X003015Y007622D01*
X002938Y007583D01*
X002856Y007556D01*
X002770Y007543D01*
X002737Y007543D01*
X002737Y008083D01*
X002717Y008083D01*
X002717Y007543D01*
X002684Y007543D01*
X002598Y007556D01*
X002516Y007583D01*
X002442Y007621D01*
X002477Y007586D01*
X002595Y007302D01*
X002595Y006994D01*
X002477Y006710D01*
X002259Y006492D01*
X001975Y006375D01*
X001668Y006375D01*
X001384Y006492D01*
X001166Y006710D01*
X001160Y006725D01*
X001160Y006328D01*
X007100Y006328D01*
X007100Y006846D01*
X007044Y006710D01*
X006826Y006492D01*
X006542Y006375D01*
X006235Y006375D01*
X005951Y006492D01*
X005733Y006710D01*
X005615Y006994D01*
X005615Y007302D01*
X005733Y007586D01*
X005951Y007803D01*
X006118Y007873D01*
X005944Y007873D01*
X005915Y007804D01*
X005772Y007660D01*
X005584Y007583D01*
X005382Y007583D01*
X005194Y007660D01*
X005051Y007804D01*
X005016Y007888D01*
X004981Y007804D01*
X004838Y007660D01*
X004650Y007583D01*
X004447Y007583D01*
X004260Y007660D01*
X004116Y007804D01*
X004105Y007831D01*
X004094Y007804D01*
X003950Y007660D01*
X003763Y007583D01*
X003560Y007583D01*
X003444Y007445D02*
X003555Y007333D01*
X003616Y007187D01*
X003616Y007030D01*
X003555Y006884D01*
X003444Y006772D01*
X003298Y006712D01*
X003140Y006712D01*
X002995Y006772D01*
X002883Y006884D01*
X002823Y007030D01*
X002823Y007187D01*
X002883Y007333D01*
X002995Y007445D01*
X003140Y007505D01*
X003298Y007505D01*
X003444Y007445D01*
X003473Y007416D02*
X004737Y007416D01*
X004766Y007445D02*
X004655Y007333D01*
X004594Y007187D01*
X004594Y007030D01*
X004655Y006884D01*
X004766Y006772D01*
X004912Y006712D01*
X005070Y006712D01*
X005215Y006772D01*
X005327Y006884D01*
X005387Y007030D01*
X005387Y007187D01*
X005327Y007333D01*
X005215Y007445D01*
X005070Y007505D01*
X004912Y007505D01*
X004766Y007445D01*
X004631Y006940D02*
X003579Y006940D01*
X003616Y007099D02*
X004594Y007099D01*
X004623Y007257D02*
X003587Y007257D01*
X003453Y006782D02*
X004757Y006782D01*
X004910Y007733D02*
X005122Y007733D01*
X005244Y007416D02*
X005663Y007416D01*
X005615Y007257D02*
X005358Y007257D01*
X005387Y007099D02*
X005615Y007099D01*
X005638Y006940D02*
X005350Y006940D01*
X005225Y006782D02*
X005703Y006782D01*
X005820Y006623D02*
X002390Y006623D01*
X002507Y006782D02*
X002985Y006782D01*
X002860Y006940D02*
X002572Y006940D01*
X002595Y007099D02*
X002823Y007099D01*
X002852Y007257D02*
X002595Y007257D01*
X002547Y007416D02*
X002966Y007416D01*
X002911Y007574D02*
X005728Y007574D01*
X005844Y007733D02*
X005880Y007733D01*
X006175Y008093D02*
X006730Y008648D01*
X006730Y009398D01*
X006480Y009648D01*
X005105Y009648D01*
X004855Y009898D01*
X004190Y009898D01*
X004105Y009983D01*
X003065Y011023D01*
X002980Y011023D01*
X003062Y011378D02*
X002205Y011378D01*
X002205Y011220D02*
X002727Y011220D01*
X002662Y011061D02*
X002205Y011061D01*
X002165Y010903D02*
X002685Y010903D01*
X002682Y010744D02*
X002821Y010744D01*
X002764Y010586D02*
X003191Y010586D01*
X003349Y010427D02*
X002764Y010427D01*
X002764Y010110D02*
X003666Y010110D01*
X003670Y009952D02*
X002740Y009952D01*
X002906Y009159D02*
X003670Y009159D01*
X003670Y009001D02*
X003064Y009001D01*
X003223Y008842D02*
X003885Y008842D01*
X003885Y008684D02*
X003381Y008684D01*
X003300Y007733D02*
X003145Y007733D01*
X002737Y007733D02*
X002717Y007733D01*
X002717Y007891D02*
X002737Y007891D01*
X002737Y008050D02*
X002717Y008050D01*
X002717Y008208D02*
X002737Y008208D01*
X002737Y008367D02*
X002717Y008367D01*
X002717Y008525D02*
X002737Y008525D01*
X002724Y008684D02*
X002759Y008684D01*
X002775Y008979D02*
X002230Y008979D01*
X002387Y008525D02*
X001160Y008525D01*
X001160Y008367D02*
X002249Y008367D01*
X002189Y008208D02*
X001160Y008208D01*
X001160Y008050D02*
X002177Y008050D01*
X002214Y007891D02*
X002047Y007891D01*
X002257Y007804D02*
X002257Y007804D01*
X002482Y007574D02*
X002543Y007574D01*
X002717Y007574D02*
X002737Y007574D01*
X002193Y006465D02*
X006017Y006465D01*
X006175Y008093D02*
X005483Y008093D01*
X005435Y008979D02*
X004549Y008093D01*
X004105Y008536D01*
X004105Y009313D01*
X003971Y010427D02*
X005446Y010427D01*
X005446Y010375D02*
X005446Y010616D01*
X005458Y010662D01*
X005482Y010703D01*
X005515Y010737D01*
X005556Y010760D01*
X005602Y010773D01*
X005922Y010773D01*
X005922Y010375D01*
X005446Y010375D01*
X005446Y010586D02*
X003813Y010586D01*
X003654Y010744D02*
X004196Y010744D01*
X004060Y010903D02*
X003496Y010903D01*
X003337Y011061D02*
X004037Y011061D01*
X004102Y011220D02*
X003233Y011220D01*
X003248Y011378D02*
X004135Y011378D01*
X004135Y011537D02*
X003485Y011537D01*
X003555Y011695D02*
X004135Y011695D01*
X004135Y011854D02*
X003554Y011854D01*
X003481Y012012D02*
X004135Y012012D01*
X004192Y012171D02*
X003239Y012171D01*
X003071Y012171D02*
X003068Y012171D01*
X002906Y012022D02*
X003155Y011773D01*
X002906Y012022D02*
X001730Y012022D01*
X002165Y012329D02*
X004350Y012329D01*
X004355Y012023D02*
X005980Y013648D01*
X005924Y013280D02*
X006100Y013280D01*
X006037Y013122D02*
X005765Y013122D01*
X005607Y012963D02*
X006061Y012963D01*
X006127Y012418D02*
X006045Y012336D01*
X006045Y012242D01*
X005213Y012242D01*
X005141Y012170D01*
X005135Y012173D01*
X004975Y012173D01*
X004828Y012112D01*
X004716Y011999D01*
X004655Y011852D01*
X004655Y011693D01*
X004716Y011546D01*
X004828Y011434D01*
X004975Y011373D01*
X005135Y011373D01*
X005282Y011434D01*
X005394Y011546D01*
X005455Y011693D01*
X005455Y011802D01*
X006045Y011802D01*
X006045Y011708D01*
X006077Y011676D01*
X006074Y011674D01*
X006041Y011640D01*
X006017Y011599D01*
X006005Y011553D01*
X006005Y011322D01*
X006432Y011322D01*
X006432Y011226D01*
X006005Y011226D01*
X006005Y010994D01*
X006017Y010948D01*
X006041Y010907D01*
X006074Y010874D01*
X006115Y010850D01*
X006161Y010838D01*
X006432Y010838D01*
X006432Y011226D01*
X006528Y011226D01*
X006528Y011322D01*
X006955Y011322D01*
X006955Y011553D01*
X006943Y011599D01*
X006919Y011640D01*
X006886Y011674D01*
X006883Y011676D01*
X006915Y011708D01*
X006915Y012336D01*
X006833Y012418D01*
X006127Y012418D01*
X006045Y012329D02*
X004973Y012329D01*
X004971Y012171D02*
X004814Y012171D01*
X004729Y012012D02*
X004656Y012012D01*
X004656Y011854D02*
X004575Y011854D01*
X004575Y011695D02*
X004655Y011695D01*
X004725Y011537D02*
X004575Y011537D01*
X004575Y011378D02*
X004962Y011378D01*
X005055Y011773D02*
X005304Y012022D01*
X006480Y012022D01*
X006509Y012805D02*
X007100Y012805D01*
X007100Y012963D02*
X006649Y012963D01*
X006673Y013122D02*
X007100Y013122D01*
X007100Y013280D02*
X006610Y013280D01*
X006575Y013439D02*
X007100Y013439D01*
X007100Y013597D02*
X006575Y013597D01*
X006575Y013756D02*
X007100Y013756D01*
X007100Y013914D02*
X006575Y013914D01*
X006429Y014073D02*
X007100Y014073D01*
X007100Y014231D02*
X006270Y014231D01*
X005980Y014210D02*
X006355Y013835D01*
X006355Y013085D01*
X006201Y012805D02*
X005448Y012805D01*
X005290Y012646D02*
X007100Y012646D01*
X007100Y012488D02*
X005131Y012488D01*
X005139Y012171D02*
X005142Y012171D01*
X005385Y011537D02*
X006005Y011537D01*
X006005Y011378D02*
X005148Y011378D01*
X005455Y011695D02*
X006057Y011695D01*
X006005Y011220D02*
X004608Y011220D01*
X004673Y011061D02*
X006005Y011061D01*
X006045Y010903D02*
X004650Y010903D01*
X004514Y010744D02*
X005528Y010744D01*
X005446Y010110D02*
X004954Y010110D01*
X005112Y009952D02*
X005470Y009952D01*
X005435Y008979D02*
X005980Y008979D01*
X005922Y010269D02*
X004540Y010269D01*
X004355Y011023D02*
X004355Y012023D01*
X003670Y009793D02*
X001160Y009793D01*
X001160Y009635D02*
X003677Y009635D01*
X003508Y010269D02*
X002288Y010269D01*
X002172Y010269D02*
X001160Y010269D01*
X001160Y009159D02*
X001736Y009159D01*
X001736Y009001D02*
X001160Y009001D01*
X001160Y008842D02*
X001736Y008842D01*
X001736Y008684D02*
X001160Y008684D01*
X001160Y007891D02*
X001596Y007891D01*
X001313Y007733D02*
X001160Y007733D01*
X001160Y007574D02*
X001161Y007574D01*
X001160Y006623D02*
X001253Y006623D01*
X001160Y006465D02*
X001450Y006465D01*
X002172Y009952D02*
X002288Y009952D01*
X002288Y010110D02*
X002172Y010110D01*
X002172Y010427D02*
X002288Y010427D01*
X002288Y010586D02*
X002172Y010586D01*
X002172Y010744D02*
X002288Y010744D01*
X002205Y011537D02*
X002825Y011537D01*
X002755Y011695D02*
X002153Y011695D01*
X002703Y014548D02*
X003099Y014548D01*
X003124Y014707D02*
X002545Y014707D01*
X002386Y014865D02*
X003262Y014865D01*
X003418Y014585D02*
X003605Y014773D01*
X004190Y014773D01*
X004230Y014813D01*
X005020Y014813D01*
X005543Y015398D01*
X005503Y015024D02*
X007100Y015024D01*
X007100Y015182D02*
X005777Y015182D01*
X005861Y015341D02*
X006712Y015341D01*
X006609Y015499D02*
X005845Y015499D01*
X005732Y015658D02*
X006603Y015658D01*
X006918Y015585D02*
X006918Y023585D01*
X006605Y023898D01*
X006130Y023898D01*
X006405Y024217D02*
X007100Y024217D01*
X007100Y024375D02*
X003887Y024375D01*
X003668Y024523D02*
X004043Y024898D01*
X004130Y024898D01*
X003806Y025168D02*
X003454Y025168D01*
X003550Y025009D02*
X003710Y025009D01*
X003684Y024851D02*
X003550Y024851D01*
X003526Y024692D02*
X003518Y024692D01*
X003448Y024534D02*
X003360Y024534D01*
X003448Y024375D02*
X002956Y024375D01*
X002668Y024398D02*
X003130Y024860D01*
X003130Y024898D01*
X002806Y025168D02*
X002454Y025168D01*
X002550Y025009D02*
X002710Y025009D01*
X002710Y024851D02*
X002550Y024851D01*
X002518Y024692D02*
X002651Y024692D01*
X002668Y024398D02*
X002668Y022983D01*
X002668Y022313D02*
X002690Y022313D01*
X003293Y021710D01*
X003293Y018148D01*
X002730Y017585D01*
X002603Y017877D02*
X001825Y017877D01*
X001825Y018035D02*
X002518Y018035D01*
X002418Y018194D02*
X001825Y018194D01*
X001825Y018352D02*
X002419Y018352D01*
X002510Y018511D02*
X001825Y018511D01*
X001825Y018669D02*
X002510Y018669D01*
X002510Y018828D02*
X001825Y018828D01*
X002144Y018986D02*
X002510Y018986D01*
X002510Y019145D02*
X002245Y019145D01*
X002265Y019303D02*
X002510Y019303D01*
X002510Y019462D02*
X002220Y019462D01*
X002071Y019620D02*
X002510Y019620D01*
X002510Y019779D02*
X001160Y019779D01*
X001160Y020730D02*
X002510Y020730D01*
X002510Y020888D02*
X001982Y020888D01*
X002204Y021047D02*
X002510Y021047D01*
X002510Y021205D02*
X002265Y021205D01*
X002260Y021364D02*
X002510Y021364D01*
X002357Y021522D02*
X002181Y021522D01*
X002198Y021681D02*
X001160Y021681D01*
X001160Y021839D02*
X002040Y021839D01*
X001948Y021998D02*
X001160Y021998D01*
X001160Y022156D02*
X001948Y022156D01*
X001948Y022315D02*
X001160Y022315D01*
X001160Y022473D02*
X001948Y022473D01*
X001948Y022632D02*
X001160Y022632D01*
X001160Y022790D02*
X001948Y022790D01*
X001948Y022949D02*
X001160Y022949D01*
X001160Y023107D02*
X001948Y023107D01*
X001948Y023266D02*
X001160Y023266D01*
X001160Y023424D02*
X001948Y023424D01*
X001851Y023583D02*
X001160Y023583D01*
X001160Y023741D02*
X001710Y023741D01*
X001710Y023900D02*
X001160Y023900D01*
X001160Y024058D02*
X001710Y024058D01*
X001855Y024217D02*
X001160Y024217D01*
X001160Y024375D02*
X002448Y024375D01*
X002448Y024217D02*
X002405Y024217D01*
X002360Y024534D02*
X002492Y024534D01*
X002130Y023898D02*
X002168Y023860D01*
X002168Y022023D01*
X002730Y021460D01*
X002730Y018273D01*
X003048Y017560D02*
X003172Y017560D01*
X003277Y017401D02*
X002996Y017401D01*
X002864Y016450D02*
X004129Y016450D01*
X003945Y016292D02*
X003022Y016292D01*
X003181Y016133D02*
X003912Y016133D01*
X003957Y015975D02*
X003339Y015975D01*
X003418Y015585D02*
X001605Y017398D01*
X001605Y019273D01*
X001605Y019833D02*
X001605Y020273D01*
X001605Y020713D01*
X001605Y020273D01*
X001605Y020273D01*
X002305Y020273D01*
X001605Y020273D01*
X001605Y020273D01*
X001605Y020273D01*
X001605Y019833D01*
X001605Y019937D02*
X001605Y019937D01*
X001605Y020096D02*
X001605Y020096D01*
X001605Y020254D02*
X001605Y020254D01*
X001605Y020413D02*
X001605Y020413D01*
X001605Y020571D02*
X001605Y020571D01*
X001228Y020888D02*
X001160Y020888D01*
X001160Y018828D02*
X001385Y018828D01*
X001385Y018669D02*
X001160Y018669D01*
X001160Y018511D02*
X001385Y018511D01*
X001385Y018352D02*
X001160Y018352D01*
X001160Y018194D02*
X001385Y018194D01*
X001385Y018035D02*
X001160Y018035D01*
X001160Y017877D02*
X001385Y017877D01*
X001385Y017718D02*
X001160Y017718D01*
X001160Y017560D02*
X001385Y017560D01*
X001700Y016767D02*
X001924Y016767D01*
X002083Y016609D02*
X001700Y016609D01*
X001700Y016450D02*
X002241Y016450D01*
X002388Y016926D02*
X004385Y016926D01*
X004385Y017084D02*
X002230Y017084D01*
X002071Y017243D02*
X004385Y017243D01*
X004385Y017401D02*
X003683Y017401D01*
X003788Y017560D02*
X004385Y017560D01*
X004385Y017718D02*
X003862Y017718D01*
X003887Y017877D02*
X004385Y017877D01*
X004385Y018035D02*
X003887Y018035D01*
X003887Y018194D02*
X004385Y018194D01*
X004385Y018352D02*
X003887Y018352D01*
X003887Y018511D02*
X004385Y018511D01*
X004385Y018669D02*
X003887Y018669D01*
X003668Y017835D02*
X003480Y017648D01*
X003668Y017835D02*
X003668Y024523D01*
X003448Y024217D02*
X003405Y024217D01*
X003887Y023107D02*
X004670Y023107D01*
X004595Y022949D02*
X003887Y022949D01*
X003887Y022790D02*
X004436Y022790D01*
X004385Y022632D02*
X003887Y022632D01*
X003887Y022473D02*
X004385Y022473D01*
X004385Y022315D02*
X003887Y022315D01*
X003887Y022156D02*
X004385Y022156D01*
X004385Y021998D02*
X003887Y021998D01*
X003887Y021839D02*
X004385Y021839D01*
X004385Y021681D02*
X003887Y021681D01*
X003887Y021522D02*
X004029Y021522D01*
X003950Y021364D02*
X003887Y021364D01*
X003887Y021205D02*
X003945Y021205D01*
X003887Y021047D02*
X004006Y021047D01*
X003887Y020888D02*
X004228Y020888D01*
X004078Y020571D02*
X003887Y020571D01*
X003887Y020413D02*
X003970Y020413D01*
X003945Y020254D02*
X003887Y020254D01*
X003887Y020096D02*
X003985Y020096D01*
X003887Y020730D02*
X006260Y020730D01*
X006260Y020888D02*
X004982Y020888D01*
X005132Y020571D02*
X006260Y020571D01*
X006260Y020413D02*
X005240Y020413D01*
X005265Y020254D02*
X006260Y020254D01*
X006260Y020096D02*
X005225Y020096D01*
X005204Y021047D02*
X006260Y021047D01*
X006260Y021205D02*
X005420Y021205D01*
X005290Y021205D02*
X005265Y021205D01*
X005355Y021523D02*
X005105Y021773D01*
X005105Y022313D01*
X004605Y022648D02*
X004940Y022983D01*
X005105Y022983D01*
X005980Y022983D01*
X005980Y022313D02*
X005980Y022023D01*
X005730Y021773D01*
X005633Y021364D02*
X006260Y021364D01*
X006260Y021522D02*
X005929Y021522D01*
X006036Y021681D02*
X006260Y021681D01*
X006260Y021839D02*
X006108Y021839D01*
X006756Y024058D02*
X007100Y024058D01*
X007100Y023900D02*
X006914Y023900D01*
X007073Y023741D02*
X007100Y023741D01*
X007100Y024534D02*
X006417Y024534D01*
X006575Y024692D02*
X007100Y024692D01*
X007100Y024851D02*
X006590Y024851D01*
X006590Y025009D02*
X007100Y025009D01*
X007100Y025168D02*
X006511Y025168D01*
X006352Y025326D02*
X007100Y025326D01*
X006140Y025326D02*
X006120Y025326D01*
X006120Y025168D02*
X006140Y025168D01*
X006140Y025009D02*
X006120Y025009D01*
X006120Y024851D02*
X006140Y024851D01*
X006140Y024692D02*
X006120Y024692D01*
X006120Y024534D02*
X006140Y024534D01*
X004605Y022648D02*
X004605Y021273D01*
X004385Y016767D02*
X002547Y016767D01*
X002705Y016609D02*
X004380Y016609D01*
X004605Y016523D02*
X004230Y016148D01*
X004230Y015483D01*
X003815Y015816D02*
X003636Y015816D01*
X003732Y015658D02*
X003795Y015658D01*
X003795Y015499D02*
X003726Y015499D01*
X003795Y015341D02*
X003623Y015341D01*
X003795Y015182D02*
X002069Y015182D01*
X002228Y015024D02*
X003795Y015024D01*
X003212Y015341D02*
X001911Y015341D01*
X001752Y015499D02*
X003109Y015499D01*
X003034Y015658D02*
X001700Y015658D01*
X001700Y015816D02*
X002875Y015816D01*
X002717Y015975D02*
X001700Y015975D01*
X001700Y016133D02*
X002558Y016133D01*
X002400Y016292D02*
X001700Y016292D01*
X001913Y017401D02*
X002464Y017401D01*
X002412Y017560D02*
X001825Y017560D01*
X001825Y017718D02*
X002441Y017718D01*
X002510Y019937D02*
X002152Y019937D01*
X002269Y020096D02*
X002510Y020096D01*
X002510Y020254D02*
X002305Y020254D01*
X002282Y020413D02*
X002510Y020413D01*
X002510Y020571D02*
X002189Y020571D01*
X005225Y014707D02*
X007100Y014707D01*
X007100Y014865D02*
X005362Y014865D01*
X006432Y011220D02*
X006528Y011220D01*
X006528Y011226D02*
X006528Y010838D01*
X006799Y010838D01*
X006845Y010850D01*
X006886Y010874D01*
X006919Y010907D01*
X006943Y010948D01*
X006955Y010994D01*
X006955Y011226D01*
X006528Y011226D01*
X006528Y011061D02*
X006432Y011061D01*
X006432Y010903D02*
X006528Y010903D01*
X006514Y010586D02*
X007100Y010586D01*
X007100Y010744D02*
X006432Y010744D01*
X006514Y010427D02*
X007100Y010427D01*
X007100Y010269D02*
X006038Y010269D01*
X006038Y010427D02*
X005922Y010427D01*
X005922Y010586D02*
X006038Y010586D01*
X006038Y010744D02*
X005922Y010744D01*
X006514Y010110D02*
X007100Y010110D01*
X007100Y009952D02*
X006490Y009952D01*
X006646Y009793D02*
X007100Y009793D01*
X007100Y009635D02*
X006804Y009635D01*
X006950Y009476D02*
X007100Y009476D01*
X007100Y009318D02*
X006950Y009318D01*
X006950Y009159D02*
X007100Y009159D01*
X007100Y009001D02*
X006950Y009001D01*
X006950Y008842D02*
X007100Y008842D01*
X007100Y008684D02*
X006950Y008684D01*
X006919Y008525D02*
X007100Y008525D01*
X007100Y008367D02*
X006760Y008367D01*
X006602Y008208D02*
X007100Y008208D01*
X007100Y008050D02*
X006443Y008050D01*
X006614Y007891D02*
X007100Y007891D01*
X007100Y007733D02*
X006897Y007733D01*
X007049Y007574D02*
X007100Y007574D01*
X007074Y006782D02*
X007100Y006782D01*
X007100Y006623D02*
X006957Y006623D01*
X007100Y006465D02*
X006760Y006465D01*
X006915Y010903D02*
X007100Y010903D01*
X007100Y011061D02*
X006955Y011061D01*
X006955Y011220D02*
X007100Y011220D01*
X007100Y011378D02*
X006955Y011378D01*
X006955Y011537D02*
X007100Y011537D01*
X007100Y011695D02*
X006903Y011695D01*
X006915Y011854D02*
X007100Y011854D01*
X007100Y012012D02*
X006915Y012012D01*
X006915Y012171D02*
X007100Y012171D01*
X007100Y012329D02*
X006915Y012329D01*
X004187Y007733D02*
X004023Y007733D01*
D19*
X004105Y006710D03*
X004355Y011023D03*
X003855Y011773D03*
X004230Y013710D03*
X004230Y016148D03*
X004230Y018148D03*
X003480Y017648D03*
X003418Y015585D03*
X003418Y014585D03*
X002730Y017585D03*
X002730Y018273D03*
X001480Y017023D03*
X001293Y014523D03*
X002980Y011023D03*
X005543Y015398D03*
X005980Y013648D03*
X006355Y013085D03*
X006918Y014523D03*
X006918Y015585D03*
X006480Y016273D03*
X005355Y021523D03*
X005730Y021773D03*
X006668Y010335D03*
M02*
