G75*
%MOIN*%
%OFA0B0*%
%FSLAX24Y24*%
%IPPOS*%
%LPD*%
%AMOC8*
5,1,8,0,0,1.08239X$1,22.5*
%
%ADD10C,0.0000*%
D10*
X000980Y006148D02*
X000980Y025648D01*
X007280Y025648D01*
X007280Y006148D01*
X000980Y006148D01*
X003002Y007109D02*
X003004Y007138D01*
X003010Y007166D01*
X003019Y007194D01*
X003032Y007220D01*
X003049Y007243D01*
X003068Y007265D01*
X003090Y007284D01*
X003115Y007299D01*
X003141Y007312D01*
X003169Y007320D01*
X003197Y007325D01*
X003226Y007326D01*
X003255Y007323D01*
X003283Y007316D01*
X003310Y007306D01*
X003336Y007292D01*
X003359Y007275D01*
X003380Y007255D01*
X003398Y007232D01*
X003413Y007207D01*
X003424Y007180D01*
X003432Y007152D01*
X003436Y007123D01*
X003436Y007095D01*
X003432Y007066D01*
X003424Y007038D01*
X003413Y007011D01*
X003398Y006986D01*
X003380Y006963D01*
X003359Y006943D01*
X003336Y006926D01*
X003310Y006912D01*
X003283Y006902D01*
X003255Y006895D01*
X003226Y006892D01*
X003197Y006893D01*
X003169Y006898D01*
X003141Y006906D01*
X003115Y006919D01*
X003090Y006934D01*
X003068Y006953D01*
X003049Y006975D01*
X003032Y006998D01*
X003019Y007024D01*
X003010Y007052D01*
X003004Y007080D01*
X003002Y007109D01*
X004774Y007109D02*
X004776Y007138D01*
X004782Y007166D01*
X004791Y007194D01*
X004804Y007220D01*
X004821Y007243D01*
X004840Y007265D01*
X004862Y007284D01*
X004887Y007299D01*
X004913Y007312D01*
X004941Y007320D01*
X004969Y007325D01*
X004998Y007326D01*
X005027Y007323D01*
X005055Y007316D01*
X005082Y007306D01*
X005108Y007292D01*
X005131Y007275D01*
X005152Y007255D01*
X005170Y007232D01*
X005185Y007207D01*
X005196Y007180D01*
X005204Y007152D01*
X005208Y007123D01*
X005208Y007095D01*
X005204Y007066D01*
X005196Y007038D01*
X005185Y007011D01*
X005170Y006986D01*
X005152Y006963D01*
X005131Y006943D01*
X005108Y006926D01*
X005082Y006912D01*
X005055Y006902D01*
X005027Y006895D01*
X004998Y006892D01*
X004969Y006893D01*
X004941Y006898D01*
X004913Y006906D01*
X004887Y006919D01*
X004862Y006934D01*
X004840Y006953D01*
X004821Y006975D01*
X004804Y006998D01*
X004791Y007024D01*
X004782Y007052D01*
X004776Y007080D01*
X004774Y007109D01*
M02*
