%
M48
M72
T01C0.0236
T02C0.0320
T03C0.0360
T04C0.0433
T05C0.0866
%
T01
X6668Y10335
X4230Y13710
X1293Y14523
X3855Y11773
X4105Y6710
X4230Y18148
X6918Y14523
X5543Y15398
X3418Y14585
X2980Y11023
X4355Y11023
X5980Y13648
X4230Y16148
X3418Y15585
X6355Y13085
X1480Y17023
X2730Y18273
X6480Y16273
X6918Y15585
X2730Y17585
X3480Y17648
X5730Y21773
X5355Y21523
T02
X5055Y11773
X3155Y11773
X1605Y21273
X1605Y20273
X1605Y19273
X4605Y19273
X4605Y21273
X4605Y20273
T03
X2727Y8093
X3661Y8093
X4549Y8093
X5483Y8093
X2130Y23898
X2130Y24898
X3130Y23898
X3130Y24898
X4130Y23898
X4130Y24898
X5130Y23898
X5130Y24898
X6130Y23898
X6130Y24898
T04
X3219Y7109
X4991Y7109
T05
X6388Y7148
X1822Y7148
M30
