G75*
%MOIN*%
%OFA0B0*%
%FSLAX24Y24*%
%IPPOS*%
%LPD*%
%AMOC8*
5,1,8,0,0,1.08239X$1,22.5*
%
%ADD10C,0.0000*%
%ADD11C,0.0040*%
%ADD12C,0.0100*%
%ADD13C,0.0060*%
%ADD14C,0.0030*%
D10*
X000980Y006148D02*
X000980Y025648D01*
X007280Y025648D01*
X007280Y006148D01*
X000980Y006148D01*
X003002Y007109D02*
X003004Y007138D01*
X003010Y007166D01*
X003019Y007194D01*
X003032Y007220D01*
X003049Y007243D01*
X003068Y007265D01*
X003090Y007284D01*
X003115Y007299D01*
X003141Y007312D01*
X003169Y007320D01*
X003197Y007325D01*
X003226Y007326D01*
X003255Y007323D01*
X003283Y007316D01*
X003310Y007306D01*
X003336Y007292D01*
X003359Y007275D01*
X003380Y007255D01*
X003398Y007232D01*
X003413Y007207D01*
X003424Y007180D01*
X003432Y007152D01*
X003436Y007123D01*
X003436Y007095D01*
X003432Y007066D01*
X003424Y007038D01*
X003413Y007011D01*
X003398Y006986D01*
X003380Y006963D01*
X003359Y006943D01*
X003336Y006926D01*
X003310Y006912D01*
X003283Y006902D01*
X003255Y006895D01*
X003226Y006892D01*
X003197Y006893D01*
X003169Y006898D01*
X003141Y006906D01*
X003115Y006919D01*
X003090Y006934D01*
X003068Y006953D01*
X003049Y006975D01*
X003032Y006998D01*
X003019Y007024D01*
X003010Y007052D01*
X003004Y007080D01*
X003002Y007109D01*
X004774Y007109D02*
X004776Y007138D01*
X004782Y007166D01*
X004791Y007194D01*
X004804Y007220D01*
X004821Y007243D01*
X004840Y007265D01*
X004862Y007284D01*
X004887Y007299D01*
X004913Y007312D01*
X004941Y007320D01*
X004969Y007325D01*
X004998Y007326D01*
X005027Y007323D01*
X005055Y007316D01*
X005082Y007306D01*
X005108Y007292D01*
X005131Y007275D01*
X005152Y007255D01*
X005170Y007232D01*
X005185Y007207D01*
X005196Y007180D01*
X005204Y007152D01*
X005208Y007123D01*
X005208Y007095D01*
X005204Y007066D01*
X005196Y007038D01*
X005185Y007011D01*
X005170Y006986D01*
X005152Y006963D01*
X005131Y006943D01*
X005108Y006926D01*
X005082Y006912D01*
X005055Y006902D01*
X005027Y006895D01*
X004998Y006892D01*
X004969Y006893D01*
X004941Y006898D01*
X004913Y006906D01*
X004887Y006919D01*
X004862Y006934D01*
X004840Y006953D01*
X004821Y006975D01*
X004804Y006998D01*
X004791Y007024D01*
X004782Y007052D01*
X004776Y007080D01*
X004774Y007109D01*
D11*
X004685Y009368D02*
X004325Y009368D01*
X004325Y009548D01*
X004385Y009608D01*
X004505Y009608D01*
X004565Y009548D01*
X004565Y009368D01*
X004565Y009488D02*
X004685Y009608D01*
X004685Y009736D02*
X004445Y009976D01*
X004385Y009976D01*
X004325Y009916D01*
X004325Y009796D01*
X004385Y009736D01*
X004685Y009736D02*
X004685Y009976D01*
X005183Y010943D02*
X005424Y010943D01*
X005304Y010943D02*
X005304Y011303D01*
X005183Y011183D01*
X005552Y011243D02*
X005612Y011303D01*
X005732Y011303D01*
X005792Y011243D01*
X005792Y011183D01*
X005552Y010943D01*
X005792Y010943D01*
X005920Y010943D02*
X005920Y011303D01*
X006040Y011183D01*
X006160Y011303D01*
X006160Y010943D01*
X006288Y010943D02*
X006288Y011303D01*
X006288Y011123D02*
X006529Y011123D01*
X006657Y011183D02*
X006897Y011183D01*
X006657Y010943D01*
X006897Y010943D01*
X006897Y011518D02*
X006657Y011518D01*
X006529Y011518D02*
X006408Y011638D01*
X006348Y011518D02*
X006288Y011578D01*
X006288Y011818D01*
X006348Y011878D01*
X006469Y011878D01*
X006529Y011818D01*
X006529Y011578D01*
X006469Y011518D01*
X006348Y011518D01*
X006529Y011303D02*
X006529Y010943D01*
X006777Y011518D02*
X006777Y011878D01*
X006657Y011758D01*
X006050Y009976D02*
X006110Y009916D01*
X006110Y009796D01*
X006050Y009736D01*
X005990Y009736D01*
X005930Y009796D01*
X005930Y009916D01*
X005990Y009976D01*
X006050Y009976D01*
X006050Y009608D02*
X005990Y009608D01*
X005930Y009548D01*
X005930Y009368D01*
X006050Y009368D01*
X006110Y009428D01*
X006110Y009548D01*
X006050Y009608D01*
X005870Y009736D02*
X005810Y009736D01*
X005750Y009796D01*
X005750Y009916D01*
X005810Y009976D01*
X005870Y009976D01*
X005930Y009916D01*
X005930Y009796D02*
X005870Y009736D01*
X005750Y009608D02*
X005810Y009488D01*
X005930Y009368D01*
X006187Y008475D02*
X006427Y008115D01*
X006187Y008115D02*
X006427Y008475D01*
X006555Y008355D02*
X006675Y008475D01*
X006675Y008115D01*
X006555Y008115D02*
X006796Y008115D01*
X006673Y016843D02*
X006493Y016843D01*
X006493Y017203D01*
X006673Y017203D01*
X006733Y017143D01*
X006733Y016903D01*
X006673Y016843D01*
X006861Y016903D02*
X006921Y016843D01*
X007041Y016843D01*
X007101Y016903D01*
X007101Y016963D01*
X007041Y017023D01*
X006981Y017023D01*
X007041Y017023D02*
X007101Y017083D01*
X007101Y017143D01*
X007041Y017203D01*
X006921Y017203D01*
X006861Y017143D01*
X006848Y018020D02*
X006788Y018020D01*
X006788Y018080D01*
X006848Y018080D01*
X006848Y018020D01*
X006788Y018208D02*
X006788Y018388D01*
X006848Y018448D01*
X006968Y018448D01*
X007028Y018388D01*
X007028Y018208D01*
X006727Y018208D01*
X006667Y018268D01*
X006667Y018328D01*
X006848Y018576D02*
X006968Y018576D01*
X007028Y018636D01*
X007028Y018757D01*
X006968Y018817D01*
X006848Y018817D01*
X006788Y018757D01*
X006788Y018636D01*
X006848Y018576D01*
X007028Y019003D02*
X006908Y019124D01*
X006788Y019124D02*
X007028Y019124D01*
X007028Y019003D02*
X007028Y018943D01*
X006968Y019252D02*
X006848Y019252D01*
X006788Y019312D01*
X006788Y019492D01*
X006667Y019492D02*
X007028Y019492D01*
X007028Y019312D01*
X006968Y019252D01*
X006968Y019986D02*
X006968Y020106D01*
X007088Y020046D02*
X007148Y019986D01*
X007088Y020046D02*
X006788Y020046D01*
X006788Y020231D02*
X006788Y020351D01*
X006788Y020291D02*
X007148Y020291D01*
X007148Y020351D01*
X006968Y020479D02*
X007028Y020539D01*
X007028Y020660D01*
X006968Y020720D01*
X006848Y020720D01*
X006788Y020660D01*
X006788Y020539D01*
X006908Y020479D02*
X006908Y020720D01*
X006908Y020848D02*
X006848Y020848D01*
X006788Y020908D01*
X006788Y021028D01*
X006848Y021088D01*
X006848Y021212D02*
X006788Y021212D01*
X006788Y021272D01*
X006848Y021272D01*
X006848Y021212D01*
X006788Y021400D02*
X006788Y021640D01*
X006788Y021520D02*
X007148Y021520D01*
X007028Y021640D01*
X007028Y021088D02*
X006968Y021028D01*
X006968Y020908D01*
X006908Y020848D01*
X006908Y020479D02*
X006968Y020479D01*
X007088Y020848D02*
X007148Y020908D01*
X007148Y021028D01*
X007088Y021088D01*
X007028Y021088D01*
X006950Y022468D02*
X006830Y022468D01*
X006770Y022528D01*
X006770Y022768D01*
X006830Y022828D01*
X006950Y022828D01*
X007010Y022768D01*
X007010Y022528D01*
X006950Y022468D01*
X006689Y022968D02*
X006749Y023028D01*
X006749Y023268D01*
X006689Y023328D01*
X006509Y023328D01*
X006509Y022968D01*
X006689Y022968D01*
X006582Y022828D02*
X006642Y022768D01*
X006582Y022828D02*
X006461Y022828D01*
X006401Y022768D01*
X006401Y022708D01*
X006461Y022648D01*
X006582Y022648D01*
X006642Y022588D01*
X006642Y022528D01*
X006582Y022468D01*
X006461Y022468D01*
X006401Y022528D01*
X006381Y022968D02*
X006381Y023328D01*
X006141Y023328D02*
X006381Y022968D01*
X006276Y022828D02*
X006156Y022828D01*
X006216Y022828D02*
X006216Y022468D01*
X006156Y022468D02*
X006276Y022468D01*
X006141Y022968D02*
X006141Y023328D01*
X006013Y023268D02*
X005953Y023328D01*
X005833Y023328D01*
X005773Y023268D01*
X005773Y023028D01*
X005833Y022968D01*
X005953Y022968D01*
X006013Y023028D01*
X006013Y023148D01*
X005893Y023148D01*
X005788Y022828D02*
X005908Y022708D01*
X006028Y022828D01*
X006028Y022468D01*
X005788Y022468D02*
X005788Y022828D01*
X005552Y022828D02*
X005312Y022588D01*
X005372Y022648D02*
X005552Y022468D01*
X005492Y022968D02*
X005552Y023028D01*
X005552Y023268D01*
X005492Y023328D01*
X005312Y023328D01*
X005312Y022968D01*
X005492Y022968D01*
X005312Y022828D02*
X005312Y022468D01*
X005184Y022528D02*
X005123Y022468D01*
X005003Y022468D01*
X004943Y022528D01*
X004943Y022768D01*
X005003Y022828D01*
X005123Y022828D01*
X005184Y022768D01*
X005184Y022968D02*
X005184Y023328D01*
X004943Y023328D02*
X005184Y022968D01*
X004943Y022968D02*
X004943Y023328D01*
X004815Y023268D02*
X004755Y023328D01*
X004635Y023328D01*
X004575Y023268D01*
X004575Y023028D01*
X004635Y022968D01*
X004755Y022968D01*
X004815Y023028D01*
X004815Y023148D01*
X004695Y023148D01*
X004635Y022828D02*
X004575Y022768D01*
X004575Y022708D01*
X004635Y022648D01*
X004755Y022648D01*
X004815Y022588D01*
X004815Y022528D01*
X004755Y022468D01*
X004635Y022468D01*
X004575Y022528D01*
X004635Y022828D02*
X004755Y022828D01*
X004815Y022768D01*
X004352Y022828D02*
X004112Y022828D01*
X003984Y022768D02*
X003923Y022828D01*
X003803Y022828D01*
X003743Y022768D01*
X003743Y022708D01*
X003803Y022648D01*
X003923Y022648D01*
X003984Y022588D01*
X003984Y022528D01*
X003923Y022468D01*
X003803Y022468D01*
X003743Y022528D01*
X003743Y022968D02*
X003984Y023328D01*
X003743Y023328D02*
X003984Y022968D01*
X004232Y022828D02*
X004232Y022468D01*
X003615Y022468D02*
X003495Y022588D01*
X003555Y022588D02*
X003375Y022588D01*
X003375Y022468D02*
X003375Y022828D01*
X003555Y022828D01*
X003615Y022768D01*
X003615Y022648D01*
X003555Y022588D01*
X003615Y022968D02*
X003495Y023088D01*
X003555Y023088D02*
X003375Y023088D01*
X003375Y022968D02*
X003375Y023328D01*
X003555Y023328D01*
X003615Y023268D01*
X003615Y023148D01*
X003555Y023088D01*
X003096Y022968D02*
X002856Y023328D01*
X002728Y023328D02*
X002488Y023328D01*
X002608Y023328D02*
X002608Y022968D01*
X002475Y022778D02*
X002355Y022778D01*
X002415Y022778D02*
X002415Y022418D01*
X002355Y022418D02*
X002475Y022418D01*
X002227Y022478D02*
X002167Y022418D01*
X002047Y022418D01*
X001987Y022478D01*
X002047Y022598D02*
X002167Y022598D01*
X002227Y022538D01*
X002227Y022478D01*
X002227Y022718D02*
X002167Y022778D01*
X002047Y022778D01*
X001987Y022718D01*
X001987Y022658D01*
X002047Y022598D01*
X002047Y022968D02*
X002167Y022968D01*
X002227Y023028D01*
X002227Y023268D02*
X002167Y023328D01*
X002047Y023328D01*
X001987Y023268D01*
X001987Y023028D01*
X002047Y022968D01*
X001859Y023028D02*
X001798Y022968D01*
X001678Y022968D01*
X001618Y023028D01*
X001618Y023268D01*
X001678Y023328D01*
X001798Y023328D01*
X001859Y023268D01*
X001798Y022778D02*
X001859Y022718D01*
X001859Y022478D01*
X001798Y022418D01*
X001678Y022418D01*
X001618Y022478D01*
X001618Y022718D01*
X001678Y022778D01*
X001798Y022778D01*
X001490Y022778D02*
X001490Y022418D01*
X001370Y022658D02*
X001490Y022778D01*
X001370Y022968D02*
X001490Y023088D01*
X001490Y023328D01*
X001250Y023088D02*
X001370Y022968D01*
X001250Y023088D02*
X001250Y023328D01*
X001250Y022778D02*
X001370Y022658D01*
X001250Y022778D02*
X001250Y022418D01*
X002350Y021308D02*
X002470Y021428D01*
X002470Y021068D01*
X002350Y021068D02*
X002590Y021068D01*
X002530Y020428D02*
X002410Y020428D01*
X002350Y020368D01*
X002590Y020308D02*
X002350Y020068D01*
X002590Y020068D01*
X002590Y020308D02*
X002590Y020368D01*
X002530Y020428D01*
X002530Y019428D02*
X002410Y019428D01*
X002350Y019368D01*
X002470Y019248D02*
X002530Y019248D01*
X002590Y019188D01*
X002590Y019128D01*
X002530Y019068D01*
X002410Y019068D01*
X002350Y019128D01*
X002530Y019248D02*
X002590Y019308D01*
X002590Y019368D01*
X002530Y019428D01*
X002177Y018018D02*
X001937Y018018D01*
X002057Y018018D02*
X002057Y018378D01*
X001937Y018258D01*
X001809Y018378D02*
X001809Y018018D01*
X001688Y018138D01*
X001568Y018018D01*
X001568Y018378D01*
X001440Y018318D02*
X001380Y018378D01*
X001260Y018378D01*
X001200Y018318D01*
X001200Y018258D01*
X001260Y018198D01*
X001380Y018198D01*
X001440Y018138D01*
X001440Y018078D01*
X001380Y018018D01*
X001260Y018018D01*
X001200Y018078D01*
X001298Y015373D02*
X001298Y015073D01*
X001358Y015013D01*
X001478Y015013D01*
X001538Y015073D01*
X001538Y015373D01*
X001666Y015253D02*
X001787Y015373D01*
X001787Y015013D01*
X001907Y015013D02*
X001666Y015013D01*
X001512Y013028D02*
X001392Y013028D01*
X001332Y012968D01*
X001332Y012728D01*
X001392Y012668D01*
X001512Y012668D01*
X001572Y012728D01*
X001700Y012668D02*
X001941Y012668D01*
X001821Y012668D02*
X001821Y013028D01*
X001700Y012908D01*
X001572Y012968D02*
X001512Y013028D01*
X001434Y012425D02*
X001434Y012064D01*
X001314Y012064D02*
X001555Y012064D01*
X001683Y012124D02*
X001923Y012365D01*
X001923Y012124D01*
X001863Y012064D01*
X001743Y012064D01*
X001683Y012124D01*
X001683Y012365D01*
X001743Y012425D01*
X001863Y012425D01*
X001923Y012365D01*
X002051Y012365D02*
X002111Y012425D01*
X002231Y012425D01*
X002291Y012365D01*
X002051Y012124D01*
X002111Y012064D01*
X002231Y012064D01*
X002291Y012124D01*
X002291Y012365D01*
X002419Y012305D02*
X002419Y012064D01*
X002419Y012305D02*
X002599Y012305D01*
X002659Y012244D01*
X002659Y012064D01*
X002435Y009976D02*
X002435Y009736D01*
X002435Y009856D02*
X002075Y009856D01*
X002195Y009736D01*
X002135Y009608D02*
X002255Y009608D01*
X002315Y009548D01*
X002315Y009368D01*
X002315Y009488D02*
X002435Y009608D01*
X002435Y009368D02*
X002075Y009368D01*
X002075Y009548D01*
X002135Y009608D01*
X002051Y012124D02*
X002051Y012365D01*
X001434Y012425D02*
X001314Y012305D01*
X003560Y009976D02*
X003500Y009916D01*
X003500Y009796D01*
X003560Y009736D01*
X003620Y009736D01*
X003680Y009796D01*
X003680Y009916D01*
X003740Y009976D01*
X003800Y009976D01*
X003860Y009916D01*
X003860Y009796D01*
X003800Y009736D01*
X003740Y009736D01*
X003680Y009796D01*
X003680Y009916D02*
X003620Y009976D01*
X003560Y009976D01*
X003500Y009608D02*
X003560Y009488D01*
X003680Y009368D01*
X003680Y009548D01*
X003740Y009608D01*
X003800Y009608D01*
X003860Y009548D01*
X003860Y009428D01*
X003800Y009368D01*
X003680Y009368D01*
X004482Y017918D02*
X004662Y017918D01*
X004722Y017978D01*
X004722Y018218D01*
X004662Y018278D01*
X004482Y018278D01*
X004482Y017918D01*
X004850Y018098D02*
X005091Y018098D01*
X005031Y017918D02*
X005031Y018278D01*
X004850Y018098D01*
X005713Y018761D02*
X005893Y018941D01*
X005833Y019001D02*
X006073Y018761D01*
X006073Y019001D02*
X005713Y019001D01*
X005773Y019129D02*
X005713Y019189D01*
X005713Y019309D01*
X005773Y019369D01*
X006013Y019369D01*
X006073Y019309D01*
X006073Y019189D01*
X006013Y019129D01*
X006013Y019497D02*
X006073Y019557D01*
X006073Y019677D01*
X006013Y019737D01*
X005953Y019737D01*
X005893Y019677D01*
X005893Y019557D01*
X005833Y019497D01*
X005773Y019497D01*
X005713Y019557D01*
X005713Y019677D01*
X005773Y019737D01*
X005773Y019866D02*
X005953Y019866D01*
X005953Y020106D02*
X005773Y020106D01*
X005713Y020046D01*
X005773Y019986D01*
X005713Y019926D01*
X005773Y019866D01*
X005773Y020234D02*
X005893Y020234D01*
X005953Y020294D01*
X005953Y020414D01*
X005893Y020474D01*
X005773Y020474D01*
X005713Y020414D01*
X005713Y020294D01*
X005773Y020234D01*
X005713Y020599D02*
X005713Y020720D01*
X005713Y020660D02*
X006073Y020660D01*
X006073Y020720D01*
X006013Y020848D02*
X006073Y020908D01*
X006073Y021028D01*
X006013Y021088D01*
X005953Y021088D01*
X005893Y021028D01*
X005893Y020908D01*
X005833Y020848D01*
X005773Y020848D01*
X005713Y020908D01*
X005713Y021028D01*
X005773Y021088D01*
X005773Y021212D02*
X005713Y021212D01*
X005713Y021272D01*
X005773Y021272D01*
X005773Y021212D01*
X005773Y021400D02*
X005713Y021460D01*
X005713Y021580D01*
X005773Y021640D01*
X005893Y021460D02*
X005833Y021400D01*
X005773Y021400D01*
X005893Y021460D02*
X005893Y021520D01*
X005893Y021460D02*
X005953Y021400D01*
X006013Y021400D01*
X006073Y021460D01*
X006073Y021580D01*
X006013Y021640D01*
X006263Y021640D02*
X006263Y021400D01*
X006263Y021272D02*
X006263Y021212D01*
X006323Y021212D01*
X006323Y021272D01*
X006263Y021272D01*
X006323Y021088D02*
X006263Y021028D01*
X006263Y020908D01*
X006323Y020848D01*
X006383Y020848D01*
X006443Y020908D01*
X006443Y021028D01*
X006503Y021088D01*
X006563Y021088D01*
X006623Y021028D01*
X006623Y020908D01*
X006563Y020848D01*
X006503Y020720D02*
X006323Y020720D01*
X006263Y020660D01*
X006263Y020479D01*
X006503Y020479D01*
X006503Y020351D02*
X006503Y020171D01*
X006443Y020111D01*
X006323Y020111D01*
X006263Y020171D01*
X006263Y020351D01*
X006142Y020351D02*
X006503Y020351D01*
X006503Y019983D02*
X006503Y019803D01*
X006443Y019743D01*
X006323Y019743D01*
X006263Y019803D01*
X006263Y019983D01*
X006142Y019983D02*
X006503Y019983D01*
X006623Y019615D02*
X006623Y019555D01*
X006263Y019555D01*
X006263Y019615D02*
X006263Y019495D01*
X006323Y019369D02*
X006263Y019309D01*
X006263Y019129D01*
X006202Y019129D02*
X006142Y019189D01*
X006142Y019249D01*
X006202Y019129D02*
X006503Y019129D01*
X006503Y019369D02*
X006323Y019369D01*
X006503Y021400D02*
X006563Y021400D01*
X006623Y021460D01*
X006623Y021580D01*
X006563Y021640D01*
X006503Y021400D02*
X006263Y021640D01*
X006540Y024193D02*
X006780Y024553D01*
X006908Y024493D02*
X006968Y024553D01*
X007088Y024553D01*
X007149Y024493D01*
X007149Y024433D01*
X006908Y024193D01*
X007149Y024193D01*
X006780Y024193D02*
X006540Y024553D01*
X003096Y023328D02*
X002856Y022968D01*
D12*
X001649Y011485D02*
X001462Y011485D01*
X001369Y011392D01*
X001369Y011111D01*
X001929Y011111D01*
X001743Y011111D02*
X001743Y011392D01*
X001649Y011485D01*
X001649Y010877D02*
X001556Y010784D01*
X001556Y010597D01*
X001462Y010504D01*
X001369Y010597D01*
X001369Y010877D01*
X001462Y010270D02*
X001369Y010176D01*
X001369Y009989D01*
X001462Y010270D02*
X001743Y010270D01*
X001743Y009989D01*
X001649Y009896D01*
X001556Y009989D01*
X001556Y010270D01*
X001743Y010784D02*
X001649Y010877D01*
X001743Y010784D02*
X001743Y010504D01*
X001649Y009662D02*
X001556Y009662D01*
X001462Y009569D01*
X001462Y009288D01*
X001556Y009054D02*
X001462Y008961D01*
X001462Y008774D01*
X001369Y008681D01*
X001275Y008681D01*
X001182Y008774D01*
X001182Y008961D01*
X001275Y009054D01*
X001182Y009288D02*
X001182Y009569D01*
X001275Y009662D01*
X001369Y009662D01*
X001462Y009569D01*
X001649Y009662D02*
X001743Y009569D01*
X001743Y009288D01*
X001182Y009288D01*
X001182Y008447D02*
X001649Y008447D01*
X001743Y008353D01*
X001743Y008166D01*
X001649Y008073D01*
X001182Y008073D01*
X001556Y009054D02*
X001649Y009054D01*
X001743Y008961D01*
X001743Y008774D01*
X001649Y008681D01*
D13*
X005265Y017363D02*
X004965Y017663D01*
X005495Y017113D02*
X005795Y016813D01*
D14*
X005244Y015228D02*
X005340Y015131D01*
X005340Y014938D01*
X005340Y015083D02*
X005147Y015083D01*
X005147Y015131D02*
X005244Y015228D01*
X005147Y015131D02*
X005147Y014938D01*
X005046Y014986D02*
X005046Y015034D01*
X004997Y015083D01*
X004901Y015083D01*
X004852Y015131D01*
X004852Y015180D01*
X004901Y015228D01*
X004997Y015228D01*
X005046Y015180D01*
X005046Y015131D01*
X004997Y015083D01*
X004901Y015083D02*
X004852Y015034D01*
X004852Y014986D01*
X004901Y014938D01*
X004997Y014938D01*
X005046Y014986D01*
X004751Y014938D02*
X004751Y015131D01*
X004654Y015228D01*
X004558Y015131D01*
X004558Y014938D01*
X004558Y015083D02*
X004751Y015083D01*
X004456Y015083D02*
X004456Y014986D01*
X004408Y014938D01*
X004311Y014938D01*
X004263Y014986D01*
X004263Y015180D01*
X004311Y015228D01*
X004408Y015228D01*
X004456Y015180D01*
X004456Y015083D02*
X004360Y015083D01*
X004162Y015228D02*
X003968Y015228D01*
X003968Y014938D01*
X004162Y014938D01*
X004065Y015083D02*
X003968Y015083D01*
X003867Y015228D02*
X003867Y014938D01*
X003770Y015131D02*
X003867Y015228D01*
X003770Y015131D02*
X003674Y015228D01*
X003674Y014938D01*
X003572Y015228D02*
X003379Y015228D01*
X003278Y015131D02*
X003278Y014938D01*
X003278Y015083D02*
X003084Y015083D01*
X003084Y015131D02*
X003181Y015228D01*
X003278Y015131D01*
X003084Y015131D02*
X003084Y014938D01*
X003476Y014938D02*
X003476Y015228D01*
M02*
