G75*
%MOIN*%
%OFA0B0*%
%FSLAX24Y24*%
%IPPOS*%
%LPD*%
%AMOC8*
5,1,8,0,0,1.08239X$1,22.5*
%
%ADD10C,0.0000*%
%ADD11C,0.0520*%
%ADD12C,0.0520*%
%ADD13R,0.0472X0.0472*%
%ADD14R,0.0500X0.0220*%
%ADD15R,0.0220X0.0500*%
%ADD16C,0.0740*%
%ADD17C,0.1266*%
%ADD18R,0.0591X0.0512*%
%ADD19R,0.0512X0.0591*%
%ADD20OC8,0.0560*%
%ADD21C,0.0160*%
%ADD22C,0.0356*%
D10*
X000980Y006148D02*
X000980Y025648D01*
X007280Y025648D01*
X007280Y006148D01*
X000980Y006148D01*
X003002Y007109D02*
X003004Y007138D01*
X003010Y007166D01*
X003019Y007194D01*
X003032Y007220D01*
X003049Y007243D01*
X003068Y007265D01*
X003090Y007284D01*
X003115Y007299D01*
X003141Y007312D01*
X003169Y007320D01*
X003197Y007325D01*
X003226Y007326D01*
X003255Y007323D01*
X003283Y007316D01*
X003310Y007306D01*
X003336Y007292D01*
X003359Y007275D01*
X003380Y007255D01*
X003398Y007232D01*
X003413Y007207D01*
X003424Y007180D01*
X003432Y007152D01*
X003436Y007123D01*
X003436Y007095D01*
X003432Y007066D01*
X003424Y007038D01*
X003413Y007011D01*
X003398Y006986D01*
X003380Y006963D01*
X003359Y006943D01*
X003336Y006926D01*
X003310Y006912D01*
X003283Y006902D01*
X003255Y006895D01*
X003226Y006892D01*
X003197Y006893D01*
X003169Y006898D01*
X003141Y006906D01*
X003115Y006919D01*
X003090Y006934D01*
X003068Y006953D01*
X003049Y006975D01*
X003032Y006998D01*
X003019Y007024D01*
X003010Y007052D01*
X003004Y007080D01*
X003002Y007109D01*
X004774Y007109D02*
X004776Y007138D01*
X004782Y007166D01*
X004791Y007194D01*
X004804Y007220D01*
X004821Y007243D01*
X004840Y007265D01*
X004862Y007284D01*
X004887Y007299D01*
X004913Y007312D01*
X004941Y007320D01*
X004969Y007325D01*
X004998Y007326D01*
X005027Y007323D01*
X005055Y007316D01*
X005082Y007306D01*
X005108Y007292D01*
X005131Y007275D01*
X005152Y007255D01*
X005170Y007232D01*
X005185Y007207D01*
X005196Y007180D01*
X005204Y007152D01*
X005208Y007123D01*
X005208Y007095D01*
X005204Y007066D01*
X005196Y007038D01*
X005185Y007011D01*
X005170Y006986D01*
X005152Y006963D01*
X005131Y006943D01*
X005108Y006926D01*
X005082Y006912D01*
X005055Y006902D01*
X005027Y006895D01*
X004998Y006892D01*
X004969Y006893D01*
X004941Y006898D01*
X004913Y006906D01*
X004887Y006919D01*
X004862Y006934D01*
X004840Y006953D01*
X004821Y006975D01*
X004804Y006998D01*
X004791Y007024D01*
X004782Y007052D01*
X004776Y007080D01*
X004774Y007109D01*
D11*
X005055Y011773D03*
X003155Y011773D03*
D12*
X004345Y019273D02*
X004865Y019273D01*
X004865Y020273D02*
X004345Y020273D01*
X004345Y021273D02*
X004865Y021273D01*
X001865Y021273D02*
X001345Y021273D01*
X001345Y020273D02*
X001865Y020273D01*
X001865Y019273D02*
X001345Y019273D01*
D13*
G36*
X005338Y018064D02*
X005671Y017731D01*
X005338Y017398D01*
X005005Y017731D01*
X005338Y018064D01*
G37*
G36*
X005863Y017514D02*
X006196Y017181D01*
X005863Y016848D01*
X005530Y017181D01*
X005863Y017514D01*
G37*
G36*
X005922Y018648D02*
X006255Y018315D01*
X005922Y017982D01*
X005589Y018315D01*
X005922Y018648D01*
G37*
G36*
X006447Y018098D02*
X006780Y017765D01*
X006447Y017432D01*
X006114Y017765D01*
X006447Y018098D01*
G37*
D14*
G36*
X006236Y015884D02*
X005884Y015532D01*
X005728Y015688D01*
X006080Y016040D01*
X006236Y015884D01*
G37*
G36*
X006458Y015661D02*
X006106Y015309D01*
X005950Y015465D01*
X006302Y015817D01*
X006458Y015661D01*
G37*
G36*
X006013Y016107D02*
X005661Y015755D01*
X005505Y015911D01*
X005857Y016263D01*
X006013Y016107D01*
G37*
G36*
X005790Y016330D02*
X005438Y015978D01*
X005282Y016134D01*
X005634Y016486D01*
X005790Y016330D01*
G37*
G36*
X005568Y016552D02*
X005216Y016200D01*
X005060Y016356D01*
X005412Y016708D01*
X005568Y016552D01*
G37*
G36*
X005345Y016775D02*
X004993Y016423D01*
X004837Y016579D01*
X005189Y016931D01*
X005345Y016775D01*
G37*
G36*
X005122Y016998D02*
X004770Y016646D01*
X004614Y016802D01*
X004966Y017154D01*
X005122Y016998D01*
G37*
G36*
X004900Y017220D02*
X004548Y016868D01*
X004392Y017024D01*
X004744Y017376D01*
X004900Y017220D01*
G37*
G36*
X004068Y013271D02*
X003716Y012919D01*
X003560Y013075D01*
X003912Y013427D01*
X004068Y013271D01*
G37*
G36*
X003846Y013494D02*
X003494Y013142D01*
X003338Y013298D01*
X003690Y013650D01*
X003846Y013494D01*
G37*
G36*
X003623Y013717D02*
X003271Y013365D01*
X003115Y013521D01*
X003467Y013873D01*
X003623Y013717D01*
G37*
G36*
X003400Y013940D02*
X003048Y013588D01*
X002892Y013744D01*
X003244Y014096D01*
X003400Y013940D01*
G37*
G36*
X003178Y014162D02*
X002826Y013810D01*
X002670Y013966D01*
X003022Y014318D01*
X003178Y014162D01*
G37*
G36*
X002955Y014385D02*
X002603Y014033D01*
X002447Y014189D01*
X002799Y014541D01*
X002955Y014385D01*
G37*
G36*
X002732Y014608D02*
X002380Y014256D01*
X002224Y014412D01*
X002576Y014764D01*
X002732Y014608D01*
G37*
G36*
X002510Y014830D02*
X002158Y014478D01*
X002002Y014634D01*
X002354Y014986D01*
X002510Y014830D01*
G37*
D15*
G36*
X002510Y015465D02*
X002354Y015309D01*
X002002Y015661D01*
X002158Y015817D01*
X002510Y015465D01*
G37*
G36*
X002732Y015688D02*
X002576Y015532D01*
X002224Y015884D01*
X002380Y016040D01*
X002732Y015688D01*
G37*
G36*
X002955Y015911D02*
X002799Y015755D01*
X002447Y016107D01*
X002603Y016263D01*
X002955Y015911D01*
G37*
G36*
X003178Y016134D02*
X003022Y015978D01*
X002670Y016330D01*
X002826Y016486D01*
X003178Y016134D01*
G37*
G36*
X003400Y016356D02*
X003244Y016200D01*
X002892Y016552D01*
X003048Y016708D01*
X003400Y016356D01*
G37*
G36*
X003623Y016579D02*
X003467Y016423D01*
X003115Y016775D01*
X003271Y016931D01*
X003623Y016579D01*
G37*
G36*
X003846Y016802D02*
X003690Y016646D01*
X003338Y016998D01*
X003494Y017154D01*
X003846Y016802D01*
G37*
G36*
X004068Y017024D02*
X003912Y016868D01*
X003560Y017220D01*
X003716Y017376D01*
X004068Y017024D01*
G37*
G36*
X005345Y013521D02*
X005189Y013365D01*
X004837Y013717D01*
X004993Y013873D01*
X005345Y013521D01*
G37*
G36*
X005568Y013744D02*
X005412Y013588D01*
X005060Y013940D01*
X005216Y014096D01*
X005568Y013744D01*
G37*
G36*
X005790Y013966D02*
X005634Y013810D01*
X005282Y014162D01*
X005438Y014318D01*
X005790Y013966D01*
G37*
G36*
X006013Y014189D02*
X005857Y014033D01*
X005505Y014385D01*
X005661Y014541D01*
X006013Y014189D01*
G37*
G36*
X006236Y014412D02*
X006080Y014256D01*
X005728Y014608D01*
X005884Y014764D01*
X006236Y014412D01*
G37*
G36*
X006458Y014634D02*
X006302Y014478D01*
X005950Y014830D01*
X006106Y014986D01*
X006458Y014634D01*
G37*
G36*
X005122Y013298D02*
X004966Y013142D01*
X004614Y013494D01*
X004770Y013650D01*
X005122Y013298D01*
G37*
G36*
X004900Y013075D02*
X004744Y012919D01*
X004392Y013271D01*
X004548Y013427D01*
X004900Y013075D01*
G37*
D16*
X004549Y008093D03*
X003661Y008093D03*
X002727Y008093D03*
X005483Y008093D03*
D17*
X006388Y007148D03*
X001822Y007148D03*
D18*
X002980Y009313D03*
X002980Y009983D03*
X005230Y009983D03*
X005230Y009313D03*
D19*
G36*
X002396Y013522D02*
X002758Y013160D01*
X002342Y012744D01*
X001980Y013106D01*
X002396Y013522D01*
G37*
G36*
X001868Y014051D02*
X002230Y013689D01*
X001814Y013273D01*
X001452Y013635D01*
X001868Y014051D01*
G37*
D20*
X002130Y023898D03*
X002130Y024898D03*
X003130Y024898D03*
X003130Y023898D03*
X004130Y023898D03*
X004130Y024898D03*
X005130Y024898D03*
X005130Y023898D03*
X006130Y023898D03*
X006130Y024898D03*
D21*
X006140Y024908D02*
X006590Y024908D01*
X006590Y025088D01*
X006321Y025358D01*
X006140Y025358D01*
X006140Y024908D01*
X006120Y024908D01*
X006120Y025358D01*
X005939Y025358D01*
X005670Y025088D01*
X005670Y024908D01*
X006120Y024908D01*
X006120Y024888D01*
X005670Y024888D01*
X005670Y024707D01*
X005939Y024438D01*
X006120Y024438D01*
X006120Y024888D01*
X006140Y024888D01*
X006140Y024908D01*
X006140Y024888D02*
X006590Y024888D01*
X006590Y024707D01*
X006321Y024438D01*
X006140Y024438D01*
X006140Y024888D01*
X006140Y024851D02*
X006120Y024851D01*
X006120Y025009D02*
X006140Y025009D01*
X006140Y025168D02*
X006120Y025168D01*
X006120Y025326D02*
X006140Y025326D01*
X006352Y025326D02*
X007100Y025326D01*
X007100Y025468D02*
X007100Y015853D01*
X007098Y015855D01*
X006981Y015903D01*
X006854Y015903D01*
X006737Y015855D01*
X006700Y015818D01*
X006700Y016043D01*
X006750Y016093D01*
X006798Y016210D01*
X006798Y016336D01*
X006750Y016453D01*
X006660Y016543D01*
X006543Y016591D01*
X006417Y016591D01*
X006300Y016543D01*
X006210Y016453D01*
X006162Y016336D01*
X006162Y016210D01*
X006199Y016121D01*
X006154Y016166D01*
X005931Y016389D01*
X005748Y016571D01*
X005748Y016577D01*
X005736Y016623D01*
X005712Y016664D01*
X005618Y016758D01*
X005314Y016454D01*
X005314Y016454D01*
X005618Y016758D01*
X005523Y016853D01*
X005482Y016877D01*
X005436Y016889D01*
X005431Y016889D01*
X005392Y016928D01*
X005583Y016928D01*
X005805Y016706D01*
X005921Y016706D01*
X006337Y017123D01*
X006337Y017239D01*
X005921Y017655D01*
X005805Y017655D01*
X005518Y017368D01*
X005507Y017368D01*
X005812Y017673D01*
X005812Y017789D01*
X005466Y018135D01*
X005512Y018182D01*
X005512Y018193D01*
X005864Y017841D01*
X005980Y017841D01*
X006385Y018246D01*
X006385Y018235D01*
X005973Y017823D01*
X005973Y017707D01*
X006389Y017291D01*
X006505Y017291D01*
X006921Y017707D01*
X006921Y017823D01*
X006825Y017920D01*
X006825Y020989D01*
X006696Y021118D01*
X006048Y021766D01*
X006048Y021836D01*
X006000Y021953D01*
X005910Y022043D01*
X005793Y022091D01*
X005667Y022091D01*
X005550Y022043D01*
X005460Y021953D01*
X005414Y021841D01*
X005292Y021841D01*
X005175Y021793D01*
X005085Y021703D01*
X005054Y021628D01*
X004945Y021673D01*
X004316Y021673D01*
X004350Y021707D01*
X004350Y023524D01*
X004550Y023724D01*
X004550Y024072D01*
X004304Y024318D01*
X003956Y024318D01*
X003710Y024072D01*
X003710Y023724D01*
X003910Y023524D01*
X003910Y021889D01*
X002305Y020284D01*
X002305Y020308D01*
X002294Y020376D01*
X002273Y020442D01*
X002241Y020503D01*
X002201Y020560D01*
X002152Y020608D01*
X002096Y020649D01*
X002034Y020681D01*
X001968Y020702D01*
X001900Y020713D01*
X001605Y020713D01*
X001310Y020713D01*
X001242Y020702D01*
X001176Y020681D01*
X001160Y020672D01*
X001160Y020917D01*
X001265Y020873D01*
X001945Y020873D01*
X002092Y020934D01*
X002204Y021046D01*
X002265Y021193D01*
X002265Y021352D01*
X002204Y021499D01*
X002092Y021612D01*
X001945Y021673D01*
X001825Y021673D01*
X001825Y023609D01*
X001956Y023478D01*
X002304Y023478D01*
X002550Y023724D01*
X002550Y024072D01*
X002304Y024318D01*
X001956Y024318D01*
X001825Y024187D01*
X001825Y024307D01*
X001996Y024478D01*
X002304Y024478D01*
X002550Y024724D01*
X002550Y025072D01*
X002304Y025318D01*
X001956Y025318D01*
X001710Y025072D01*
X001710Y024814D01*
X001385Y024489D01*
X001385Y021673D01*
X001265Y021673D01*
X001160Y021629D01*
X001160Y025468D01*
X007100Y025468D01*
X007100Y025168D02*
X006511Y025168D01*
X006590Y025009D02*
X007100Y025009D01*
X007100Y024851D02*
X006590Y024851D01*
X006575Y024692D02*
X007100Y024692D01*
X007100Y024534D02*
X006417Y024534D01*
X006304Y024318D02*
X005956Y024318D01*
X005710Y024072D01*
X005710Y023724D01*
X005956Y023478D01*
X006304Y023478D01*
X006550Y023724D01*
X006550Y024072D01*
X006304Y024318D01*
X006405Y024217D02*
X007100Y024217D01*
X007100Y024375D02*
X001894Y024375D01*
X001855Y024217D02*
X001825Y024217D01*
X001710Y024851D02*
X001160Y024851D01*
X001160Y025009D02*
X001710Y025009D01*
X001806Y025168D02*
X001160Y025168D01*
X001160Y025326D02*
X004908Y025326D01*
X004939Y025358D02*
X004670Y025088D01*
X004670Y024908D01*
X005120Y024908D01*
X005120Y025358D01*
X004939Y025358D01*
X005120Y025326D02*
X005140Y025326D01*
X005140Y025358D02*
X005321Y025358D01*
X005590Y025088D01*
X005590Y024908D01*
X005140Y024908D01*
X005120Y024908D01*
X005120Y024888D01*
X004670Y024888D01*
X004670Y024707D01*
X004939Y024438D01*
X005120Y024438D01*
X005120Y024888D01*
X005140Y024888D01*
X005140Y024908D01*
X005140Y025358D01*
X005140Y025168D02*
X005120Y025168D01*
X005120Y025009D02*
X005140Y025009D01*
X005140Y024888D02*
X005590Y024888D01*
X005590Y024707D01*
X005321Y024438D01*
X005140Y024438D01*
X005140Y024888D01*
X005140Y024851D02*
X005120Y024851D01*
X005120Y024692D02*
X005140Y024692D01*
X005140Y024534D02*
X005120Y024534D01*
X004956Y024318D02*
X004710Y024072D01*
X004710Y023724D01*
X004956Y023478D01*
X005304Y023478D01*
X005550Y023724D01*
X005550Y024072D01*
X005304Y024318D01*
X004956Y024318D01*
X004855Y024217D02*
X004405Y024217D01*
X004304Y024478D02*
X004550Y024724D01*
X004550Y025072D01*
X004304Y025318D01*
X003956Y025318D01*
X003710Y025072D01*
X003710Y024724D01*
X003956Y024478D01*
X004304Y024478D01*
X004360Y024534D02*
X004843Y024534D01*
X004685Y024692D02*
X004518Y024692D01*
X004550Y024851D02*
X004670Y024851D01*
X004670Y025009D02*
X004550Y025009D01*
X004454Y025168D02*
X004749Y025168D01*
X004710Y024058D02*
X004550Y024058D01*
X004550Y023900D02*
X004710Y023900D01*
X004710Y023741D02*
X004550Y023741D01*
X004409Y023583D02*
X004851Y023583D01*
X004350Y023424D02*
X007100Y023424D01*
X007100Y023266D02*
X004350Y023266D01*
X004350Y023107D02*
X007100Y023107D01*
X007100Y022949D02*
X004350Y022949D01*
X004350Y022790D02*
X007100Y022790D01*
X007100Y022632D02*
X004350Y022632D01*
X004350Y022473D02*
X007100Y022473D01*
X007100Y022315D02*
X004350Y022315D01*
X004350Y022156D02*
X007100Y022156D01*
X007100Y021998D02*
X005955Y021998D01*
X006047Y021839D02*
X007100Y021839D01*
X007100Y021681D02*
X006133Y021681D01*
X006292Y021522D02*
X007100Y021522D01*
X007100Y021364D02*
X006450Y021364D01*
X006609Y021205D02*
X007100Y021205D01*
X007100Y021047D02*
X006767Y021047D01*
X006825Y020888D02*
X007100Y020888D01*
X007100Y020730D02*
X006825Y020730D01*
X006825Y020571D02*
X007100Y020571D01*
X007100Y020413D02*
X006825Y020413D01*
X006825Y020254D02*
X007100Y020254D01*
X007100Y020096D02*
X006825Y020096D01*
X006825Y019937D02*
X007100Y019937D01*
X007100Y019779D02*
X006825Y019779D01*
X006825Y019620D02*
X007100Y019620D01*
X007100Y019462D02*
X006825Y019462D01*
X006825Y019303D02*
X007100Y019303D01*
X007100Y019145D02*
X006825Y019145D01*
X006825Y018986D02*
X007100Y018986D01*
X007100Y018828D02*
X006825Y018828D01*
X006825Y018669D02*
X007100Y018669D01*
X007100Y018511D02*
X006825Y018511D01*
X006825Y018352D02*
X007100Y018352D01*
X007100Y018194D02*
X006825Y018194D01*
X006825Y018035D02*
X007100Y018035D01*
X007100Y017877D02*
X006868Y017877D01*
X006921Y017718D02*
X007100Y017718D01*
X007100Y017560D02*
X006774Y017560D01*
X006616Y017401D02*
X007100Y017401D01*
X007100Y017243D02*
X006332Y017243D01*
X006299Y017084D02*
X007100Y017084D01*
X007100Y016926D02*
X006140Y016926D01*
X006209Y016450D02*
X005869Y016450D01*
X006028Y016292D02*
X006162Y016292D01*
X006186Y016133D02*
X006193Y016133D01*
X005982Y015786D02*
X005568Y015372D01*
X005543Y015398D01*
X004230Y016710D01*
X004230Y017210D01*
X005293Y018273D01*
X005293Y020585D01*
X004605Y021273D01*
X004520Y021358D01*
X004324Y021681D02*
X005076Y021681D01*
X005288Y021839D02*
X004350Y021839D01*
X004350Y021998D02*
X005505Y021998D01*
X005355Y021523D02*
X005922Y020956D01*
X005922Y018315D01*
X005829Y017877D02*
X005723Y017877D01*
X005670Y018035D02*
X005565Y018035D01*
X005699Y017560D02*
X005710Y017560D01*
X005812Y017718D02*
X005973Y017718D01*
X006015Y017560D02*
X006121Y017560D01*
X006174Y017401D02*
X006279Y017401D01*
X006447Y017765D02*
X006605Y017923D01*
X006605Y020898D01*
X005730Y021773D01*
X005851Y023583D02*
X005409Y023583D01*
X005550Y023741D02*
X005710Y023741D01*
X005710Y023900D02*
X005550Y023900D01*
X005550Y024058D02*
X005710Y024058D01*
X005855Y024217D02*
X005405Y024217D01*
X005417Y024534D02*
X005843Y024534D01*
X005685Y024692D02*
X005575Y024692D01*
X005590Y024851D02*
X005670Y024851D01*
X005670Y025009D02*
X005590Y025009D01*
X005511Y025168D02*
X005749Y025168D01*
X005908Y025326D02*
X005352Y025326D01*
X006120Y024692D02*
X006140Y024692D01*
X006140Y024534D02*
X006120Y024534D01*
X006409Y023583D02*
X007100Y023583D01*
X007100Y023741D02*
X006550Y023741D01*
X006550Y023900D02*
X007100Y023900D01*
X007100Y024058D02*
X006550Y024058D01*
X005073Y018926D02*
X005073Y018364D01*
X004139Y017430D01*
X004075Y017366D01*
X004075Y018977D01*
X004118Y018934D01*
X004265Y018873D01*
X004945Y018873D01*
X005073Y018926D01*
X005073Y018828D02*
X004075Y018828D01*
X004075Y018669D02*
X005073Y018669D01*
X005073Y018511D02*
X004075Y018511D01*
X004075Y018352D02*
X005061Y018352D01*
X004902Y018194D02*
X004075Y018194D01*
X004075Y018035D02*
X004744Y018035D01*
X004585Y017877D02*
X004075Y017877D01*
X004075Y017718D02*
X004427Y017718D01*
X004268Y017560D02*
X004075Y017560D01*
X004075Y017401D02*
X004110Y017401D01*
X003855Y017163D02*
X003814Y017122D01*
X003855Y017163D02*
X003855Y019710D01*
X004355Y020210D01*
X004543Y020210D01*
X004605Y020273D01*
X004894Y020673D02*
X004694Y020873D01*
X004265Y020873D01*
X004118Y020934D01*
X004006Y021046D01*
X003945Y021193D01*
X003945Y021302D01*
X002173Y019530D01*
X002204Y019499D01*
X002265Y019352D01*
X002265Y019193D01*
X002204Y019046D01*
X002092Y018934D01*
X001945Y018873D01*
X001265Y018873D01*
X001160Y018917D01*
X001160Y007571D01*
X001166Y007586D01*
X001384Y007803D01*
X001668Y007921D01*
X001975Y007921D01*
X002257Y007804D01*
X002257Y007804D01*
X002217Y007882D01*
X002191Y007964D01*
X002177Y008049D01*
X002177Y008083D01*
X002717Y008083D01*
X002717Y008103D01*
X002717Y008643D01*
X002684Y008643D01*
X002598Y008629D01*
X002516Y008602D01*
X002439Y008563D01*
X002369Y008512D01*
X002308Y008451D01*
X002257Y008381D01*
X002217Y008304D01*
X002191Y008222D01*
X002177Y008136D01*
X002177Y008103D01*
X002717Y008103D01*
X002737Y008103D01*
X002737Y008643D01*
X002770Y008643D01*
X002856Y008629D01*
X002938Y008602D01*
X003015Y008563D01*
X003085Y008512D01*
X003147Y008451D01*
X003197Y008381D01*
X003215Y008347D01*
X003229Y008382D01*
X003372Y008525D01*
X003432Y008550D01*
X003065Y008917D01*
X002627Y008917D01*
X002545Y008999D01*
X002545Y009627D01*
X002565Y009648D01*
X002545Y009669D01*
X002545Y010296D01*
X002627Y010378D01*
X003065Y010378D01*
X003800Y011114D01*
X003929Y011243D01*
X004125Y011243D01*
X004175Y011293D01*
X004292Y011341D01*
X004418Y011341D01*
X004535Y011293D01*
X004625Y011203D01*
X004673Y011086D01*
X004673Y010960D01*
X004625Y010843D01*
X004535Y010753D01*
X004418Y010705D01*
X004292Y010705D01*
X004175Y010753D01*
X004125Y010803D01*
X004111Y010803D01*
X003415Y010107D01*
X003415Y009669D01*
X003395Y009648D01*
X003415Y009627D01*
X003415Y009189D01*
X003752Y008852D01*
X003881Y008723D01*
X003881Y008554D01*
X003950Y008525D01*
X004094Y008382D01*
X004105Y008354D01*
X004116Y008382D01*
X004260Y008525D01*
X004329Y008554D01*
X004329Y008723D01*
X004458Y008852D01*
X004795Y009189D01*
X004795Y009627D01*
X004815Y009648D01*
X004795Y009669D01*
X004795Y010296D01*
X004877Y010378D01*
X005315Y010378D01*
X005760Y010824D01*
X005760Y013084D01*
X005434Y013410D01*
X005248Y013224D01*
X005248Y013224D01*
X005040Y013016D01*
X005040Y013016D01*
X004803Y012779D01*
X004687Y012779D01*
X004251Y013214D01*
X004251Y013330D01*
X004489Y013568D01*
X004489Y013568D01*
X004696Y013776D01*
X004696Y013776D01*
X004919Y013998D01*
X004919Y013998D01*
X005105Y014184D01*
X004299Y014990D01*
X003201Y014990D01*
X003076Y015115D01*
X002424Y015115D01*
X002635Y014904D01*
X002818Y014721D01*
X002824Y014721D01*
X002869Y014709D01*
X002910Y014686D01*
X003005Y014591D01*
X002701Y014287D01*
X002701Y014287D01*
X003005Y014591D01*
X003058Y014537D01*
X003099Y014578D01*
X003099Y014649D01*
X003148Y014766D01*
X003237Y014855D01*
X003354Y014903D01*
X003481Y014903D01*
X003598Y014855D01*
X003687Y014766D01*
X003736Y014649D01*
X003736Y014522D01*
X003687Y014405D01*
X003598Y014316D01*
X003481Y014267D01*
X003411Y014267D01*
X003370Y014226D01*
X003450Y014146D01*
X003146Y013842D01*
X003146Y013842D01*
X003146Y013841D01*
X002842Y013537D01*
X002937Y013443D01*
X002978Y013419D01*
X003024Y013407D01*
X003029Y013407D01*
X003166Y013270D01*
X003139Y013243D01*
X003139Y013243D01*
X003010Y013114D01*
X003010Y012146D01*
X002928Y012112D01*
X002816Y011999D01*
X002755Y011852D01*
X002755Y011693D01*
X002816Y011546D01*
X002928Y011434D01*
X003075Y011373D01*
X003235Y011373D01*
X003382Y011434D01*
X003494Y011546D01*
X003555Y011693D01*
X003555Y011852D01*
X003494Y011999D01*
X003450Y012044D01*
X003450Y012932D01*
X003477Y012959D01*
X003657Y012779D01*
X003738Y012779D01*
X004658Y011859D01*
X004655Y011852D01*
X004655Y011693D01*
X004716Y011546D01*
X004828Y011434D01*
X004975Y011373D01*
X005135Y011373D01*
X005282Y011434D01*
X005394Y011546D01*
X005455Y011693D01*
X005455Y011852D01*
X005394Y011999D01*
X005282Y012112D01*
X005135Y012173D01*
X004975Y012173D01*
X004969Y012170D01*
X004067Y013072D01*
X004209Y013214D01*
X004209Y013330D01*
X003971Y013568D01*
X003749Y013791D01*
X003581Y013958D01*
X003581Y013964D01*
X003569Y014010D01*
X003545Y014051D01*
X003450Y014146D01*
X003146Y013842D01*
X002842Y013537D01*
X002775Y013605D01*
X002644Y013474D01*
X002899Y013219D01*
X002899Y013103D01*
X002589Y012794D01*
X002589Y011725D01*
X002973Y011341D01*
X003043Y011341D01*
X003160Y011293D01*
X003250Y011203D01*
X003298Y011086D01*
X003298Y010960D01*
X003250Y010843D01*
X003160Y010753D01*
X003043Y010705D01*
X002917Y010705D01*
X002800Y010753D01*
X002710Y010843D01*
X002662Y010960D01*
X002662Y011030D01*
X002149Y011542D01*
X002149Y012738D01*
X001840Y013048D01*
X001840Y013093D01*
X001836Y013093D01*
X001789Y013093D01*
X001743Y013105D01*
X001702Y013129D01*
X001538Y013292D01*
X001841Y013595D01*
X001773Y013662D01*
X001471Y013360D01*
X001307Y013524D01*
X001283Y013565D01*
X001271Y013611D01*
X001271Y013658D01*
X001283Y013704D01*
X001307Y013745D01*
X001498Y013937D01*
X001773Y013662D01*
X001841Y013730D01*
X002143Y014032D01*
X001979Y014196D01*
X001938Y014220D01*
X001892Y014232D01*
X001845Y014232D01*
X001799Y014220D01*
X001758Y014196D01*
X001566Y014004D01*
X001841Y013730D01*
X001908Y013662D01*
X002211Y013965D01*
X002362Y013813D01*
X002464Y013916D01*
X002397Y013983D01*
X002701Y014287D01*
X002701Y014287D01*
X002397Y013983D01*
X002302Y014077D01*
X002279Y014118D01*
X002266Y014164D01*
X002266Y014170D01*
X002084Y014353D01*
X001861Y014575D01*
X001861Y014691D01*
X002297Y015127D01*
X002377Y015127D01*
X002335Y015169D01*
X002297Y015169D01*
X001861Y015604D01*
X001861Y015720D01*
X002047Y015906D01*
X001885Y016068D01*
X001885Y017052D01*
X002014Y017180D01*
X002412Y017578D01*
X002412Y017644D01*
X001798Y017030D01*
X001798Y016960D01*
X001750Y016843D01*
X001660Y016753D01*
X001543Y016705D01*
X001417Y016705D01*
X001300Y016753D01*
X001210Y016843D01*
X001162Y016960D01*
X001162Y017086D01*
X001210Y017203D01*
X001300Y017293D01*
X001417Y017341D01*
X001487Y017341D01*
X002412Y018266D01*
X002412Y018336D01*
X002460Y018453D01*
X002550Y018543D01*
X002667Y018591D01*
X002793Y018591D01*
X002910Y018543D01*
X003000Y018453D01*
X003048Y018336D01*
X003048Y018210D01*
X003000Y018093D01*
X002910Y018003D01*
X002793Y017955D01*
X002723Y017955D01*
X002672Y017903D01*
X002793Y017903D01*
X002910Y017855D01*
X003000Y017766D01*
X003048Y017649D01*
X003048Y017527D01*
X003162Y017641D01*
X003162Y017711D01*
X003210Y017828D01*
X003300Y017918D01*
X003417Y017966D01*
X003543Y017966D01*
X003635Y017928D01*
X003635Y019802D01*
X003969Y020135D01*
X003945Y020193D01*
X003945Y020352D01*
X004006Y020499D01*
X004118Y020612D01*
X004265Y020673D01*
X004894Y020673D01*
X004837Y020730D02*
X003373Y020730D01*
X003215Y020571D02*
X004078Y020571D01*
X003970Y020413D02*
X003056Y020413D01*
X002898Y020254D02*
X003945Y020254D01*
X003929Y020096D02*
X002739Y020096D01*
X002581Y019937D02*
X003771Y019937D01*
X003635Y019779D02*
X002422Y019779D01*
X002264Y019620D02*
X003635Y019620D01*
X003635Y019462D02*
X002220Y019462D01*
X002265Y019303D02*
X003635Y019303D01*
X003635Y019145D02*
X002245Y019145D01*
X002144Y018986D02*
X003635Y018986D01*
X003635Y018828D02*
X001160Y018828D01*
X001160Y018669D02*
X003635Y018669D01*
X003635Y018511D02*
X002942Y018511D01*
X003041Y018352D02*
X003635Y018352D01*
X003635Y018194D02*
X003042Y018194D01*
X002942Y018035D02*
X003635Y018035D01*
X003480Y017648D02*
X002480Y016648D01*
X002480Y016230D01*
X002701Y016009D01*
X002478Y015786D02*
X002105Y016159D01*
X002105Y016960D01*
X002730Y017585D01*
X002857Y017877D02*
X003259Y017877D01*
X003165Y017718D02*
X003019Y017718D01*
X003048Y017560D02*
X003081Y017560D01*
X002730Y018273D02*
X001480Y017023D01*
X001547Y017401D02*
X001160Y017401D01*
X001160Y017243D02*
X001250Y017243D01*
X001162Y017084D02*
X001160Y017084D01*
X001160Y016926D02*
X001176Y016926D01*
X001160Y016767D02*
X001286Y016767D01*
X001160Y016609D02*
X001885Y016609D01*
X001885Y016767D02*
X001674Y016767D01*
X001784Y016926D02*
X001885Y016926D01*
X001853Y017084D02*
X001918Y017084D01*
X002011Y017243D02*
X002076Y017243D01*
X002170Y017401D02*
X002235Y017401D01*
X002328Y017560D02*
X002393Y017560D01*
X002181Y018035D02*
X001160Y018035D01*
X001160Y017877D02*
X002023Y017877D01*
X001864Y017718D02*
X001160Y017718D01*
X001160Y017560D02*
X001706Y017560D01*
X001885Y016450D02*
X001160Y016450D01*
X001160Y016292D02*
X001885Y016292D01*
X001885Y016133D02*
X001160Y016133D01*
X001160Y015975D02*
X001978Y015975D01*
X001957Y015816D02*
X001160Y015816D01*
X001160Y015658D02*
X001861Y015658D01*
X001966Y015499D02*
X001160Y015499D01*
X001160Y015341D02*
X002124Y015341D01*
X002193Y015024D02*
X001160Y015024D01*
X001160Y015182D02*
X002283Y015182D01*
X002480Y015335D02*
X002256Y015560D01*
X002256Y015563D01*
X002480Y015335D02*
X003168Y015335D01*
X003293Y015210D01*
X004390Y015210D01*
X005536Y014064D01*
X005390Y014210D01*
X005314Y013842D02*
X005980Y013175D01*
X005980Y010733D01*
X005230Y009983D01*
X005364Y010427D02*
X003736Y010427D01*
X003577Y010269D02*
X004795Y010269D01*
X004795Y010110D02*
X003419Y010110D01*
X003415Y009952D02*
X004795Y009952D01*
X004795Y009793D02*
X003415Y009793D01*
X003408Y009635D02*
X004802Y009635D01*
X004795Y009476D02*
X003415Y009476D01*
X003415Y009318D02*
X004795Y009318D01*
X004765Y009159D02*
X003445Y009159D01*
X003603Y009001D02*
X004607Y009001D01*
X004448Y008842D02*
X003762Y008842D01*
X003881Y008684D02*
X004329Y008684D01*
X004260Y008525D02*
X003950Y008525D01*
X004100Y008367D02*
X004110Y008367D01*
X004105Y007831D02*
X004116Y007804D01*
X004260Y007660D01*
X004447Y007583D01*
X004650Y007583D01*
X004838Y007660D01*
X004981Y007804D01*
X005016Y007888D01*
X005051Y007804D01*
X005194Y007660D01*
X005382Y007583D01*
X005584Y007583D01*
X005772Y007660D01*
X005915Y007804D01*
X005993Y007991D01*
X005993Y008194D01*
X005915Y008382D01*
X005772Y008525D01*
X005584Y008603D01*
X005382Y008603D01*
X005194Y008525D01*
X005051Y008382D01*
X005016Y008298D01*
X004981Y008382D01*
X004838Y008525D01*
X004778Y008550D01*
X005145Y008917D01*
X005583Y008917D01*
X005665Y008999D01*
X005665Y009627D01*
X005645Y009648D01*
X005665Y009669D01*
X005665Y010107D01*
X006200Y010641D01*
X006200Y010824D01*
X006200Y012805D01*
X006201Y012805D01*
X006200Y012805D02*
X006292Y012767D01*
X006418Y012767D01*
X006535Y012816D01*
X006625Y012905D01*
X006673Y013022D01*
X006673Y013149D01*
X006625Y013266D01*
X006575Y013315D01*
X006575Y014239D01*
X006446Y014368D01*
X006419Y014395D01*
X006599Y014575D01*
X006599Y014691D01*
X006467Y014824D01*
X006911Y015267D01*
X006981Y015267D01*
X007098Y015316D01*
X007100Y015318D01*
X007100Y007450D01*
X007044Y007586D01*
X006826Y007803D01*
X006542Y007921D01*
X006235Y007921D01*
X005951Y007803D01*
X005733Y007586D01*
X005615Y007302D01*
X005615Y006994D01*
X005733Y006710D01*
X005951Y006492D01*
X006235Y006375D01*
X006542Y006375D01*
X006826Y006492D01*
X007044Y006710D01*
X007100Y006846D01*
X007100Y006328D01*
X001160Y006328D01*
X001160Y006725D01*
X001166Y006710D01*
X001384Y006492D01*
X001668Y006375D01*
X001975Y006375D01*
X002259Y006492D01*
X002477Y006710D01*
X002595Y006994D01*
X002595Y007302D01*
X002477Y007586D01*
X002442Y007621D01*
X002516Y007583D01*
X002598Y007556D01*
X002684Y007543D01*
X002717Y007543D01*
X002717Y008083D01*
X002737Y008083D01*
X002737Y007543D01*
X002770Y007543D01*
X002856Y007556D01*
X002938Y007583D01*
X003015Y007622D01*
X003085Y007673D01*
X003147Y007734D01*
X003197Y007804D01*
X003215Y007838D01*
X003229Y007804D01*
X003372Y007660D01*
X003560Y007583D01*
X003763Y007583D01*
X003950Y007660D01*
X004094Y007804D01*
X004105Y007831D01*
X004023Y007733D02*
X004187Y007733D01*
X004549Y008093D02*
X004549Y008632D01*
X005230Y009313D01*
X005070Y008842D02*
X007100Y008842D01*
X007100Y008684D02*
X004912Y008684D01*
X004837Y008525D02*
X005195Y008525D01*
X005044Y008367D02*
X004987Y008367D01*
X004910Y007733D02*
X005122Y007733D01*
X005070Y007505D02*
X005215Y007445D01*
X005327Y007333D01*
X005387Y007187D01*
X005387Y007030D01*
X005327Y006884D01*
X005215Y006772D01*
X005070Y006712D01*
X004912Y006712D01*
X004766Y006772D01*
X004655Y006884D01*
X004594Y007030D01*
X004594Y007187D01*
X004655Y007333D01*
X004766Y007445D01*
X004912Y007505D01*
X005070Y007505D01*
X005244Y007416D02*
X005663Y007416D01*
X005615Y007257D02*
X005358Y007257D01*
X005387Y007099D02*
X005615Y007099D01*
X005638Y006940D02*
X005350Y006940D01*
X005225Y006782D02*
X005703Y006782D01*
X005820Y006623D02*
X002390Y006623D01*
X002507Y006782D02*
X002985Y006782D01*
X002995Y006772D02*
X003140Y006712D01*
X003298Y006712D01*
X003444Y006772D01*
X003555Y006884D01*
X003616Y007030D01*
X003616Y007187D01*
X003555Y007333D01*
X003444Y007445D01*
X003298Y007505D01*
X003140Y007505D01*
X002995Y007445D01*
X002883Y007333D01*
X002823Y007187D01*
X002823Y007030D01*
X002883Y006884D01*
X002995Y006772D01*
X002860Y006940D02*
X002572Y006940D01*
X002595Y007099D02*
X002823Y007099D01*
X002852Y007257D02*
X002595Y007257D01*
X002547Y007416D02*
X002966Y007416D01*
X002911Y007574D02*
X005728Y007574D01*
X005844Y007733D02*
X005880Y007733D01*
X005952Y007891D02*
X006163Y007891D01*
X005993Y008050D02*
X007100Y008050D01*
X007100Y008208D02*
X005987Y008208D01*
X005921Y008367D02*
X007100Y008367D01*
X007100Y008525D02*
X005771Y008525D01*
X005665Y009001D02*
X007100Y009001D01*
X007100Y009159D02*
X005665Y009159D01*
X005665Y009318D02*
X007100Y009318D01*
X007100Y009476D02*
X005665Y009476D01*
X005658Y009635D02*
X007100Y009635D01*
X007100Y009793D02*
X005665Y009793D01*
X005665Y009952D02*
X007100Y009952D01*
X007100Y010110D02*
X005669Y010110D01*
X005827Y010269D02*
X007100Y010269D01*
X007100Y010427D02*
X005986Y010427D01*
X006144Y010586D02*
X007100Y010586D01*
X007100Y010744D02*
X006200Y010744D01*
X006200Y010903D02*
X007100Y010903D01*
X007100Y011061D02*
X006200Y011061D01*
X006200Y011220D02*
X007100Y011220D01*
X007100Y011378D02*
X006200Y011378D01*
X006200Y011537D02*
X007100Y011537D01*
X007100Y011695D02*
X006200Y011695D01*
X006200Y011854D02*
X007100Y011854D01*
X007100Y012012D02*
X006200Y012012D01*
X006200Y012171D02*
X007100Y012171D01*
X007100Y012329D02*
X006200Y012329D01*
X006200Y012488D02*
X007100Y012488D01*
X007100Y012646D02*
X006200Y012646D01*
X006355Y013085D02*
X006355Y014148D01*
X005993Y014510D01*
X005982Y014510D01*
X005759Y014306D02*
X004480Y015585D01*
X003418Y015585D01*
X003168Y015024D02*
X002516Y015024D01*
X002674Y014865D02*
X003262Y014865D01*
X003124Y014707D02*
X002873Y014707D01*
X002962Y014548D02*
X002962Y014548D01*
X003048Y014548D02*
X003069Y014548D01*
X003418Y014585D02*
X002924Y014092D01*
X002924Y014064D01*
X002369Y013510D01*
X002369Y013133D01*
X002369Y011633D01*
X002980Y011023D01*
X002936Y011378D02*
X003062Y011378D01*
X003155Y011773D02*
X003230Y011848D01*
X003230Y013023D01*
X003592Y013385D01*
X003592Y013396D01*
X003784Y013756D02*
X004676Y013756D01*
X004518Y013597D02*
X003942Y013597D01*
X004101Y013439D02*
X004359Y013439D01*
X004251Y013280D02*
X004209Y013280D01*
X004117Y013122D02*
X004343Y013122D01*
X004334Y012805D02*
X004660Y012805D01*
X004651Y012488D02*
X005760Y012488D01*
X005760Y012646D02*
X004493Y012646D01*
X004502Y012963D02*
X004176Y012963D01*
X004029Y012488D02*
X003450Y012488D01*
X003450Y012646D02*
X003870Y012646D01*
X003814Y013013D02*
X005055Y011773D01*
X004962Y011378D02*
X003248Y011378D01*
X003233Y011220D02*
X003906Y011220D01*
X004020Y011023D02*
X004355Y011023D01*
X004514Y010744D02*
X005681Y010744D01*
X005760Y010903D02*
X004650Y010903D01*
X004673Y011061D02*
X005760Y011061D01*
X005760Y011220D02*
X004608Y011220D01*
X004725Y011537D02*
X003485Y011537D01*
X003555Y011695D02*
X004655Y011695D01*
X004656Y011854D02*
X003554Y011854D01*
X003481Y012012D02*
X004504Y012012D01*
X004346Y012171D02*
X003450Y012171D01*
X003450Y012329D02*
X004187Y012329D01*
X003814Y013013D02*
X003814Y013173D01*
X003631Y012805D02*
X003450Y012805D01*
X003156Y013280D02*
X002838Y013280D01*
X002899Y013122D02*
X003018Y013122D01*
X003010Y012963D02*
X002759Y012963D01*
X002601Y012805D02*
X003010Y012805D01*
X003010Y012646D02*
X002589Y012646D01*
X002589Y012488D02*
X003010Y012488D01*
X003010Y012329D02*
X002589Y012329D01*
X002589Y012171D02*
X003010Y012171D01*
X002829Y012012D02*
X002589Y012012D01*
X002589Y011854D02*
X002756Y011854D01*
X002755Y011695D02*
X002619Y011695D01*
X002777Y011537D02*
X002825Y011537D01*
X002630Y011061D02*
X001160Y011061D01*
X001160Y010903D02*
X002685Y010903D01*
X002821Y010744D02*
X001160Y010744D01*
X001160Y010586D02*
X003272Y010586D01*
X003139Y010744D02*
X003431Y010744D01*
X003275Y010903D02*
X003589Y010903D01*
X003748Y011061D02*
X003298Y011061D01*
X003114Y010427D02*
X001160Y010427D01*
X001160Y010269D02*
X002545Y010269D01*
X002545Y010110D02*
X001160Y010110D01*
X001160Y009952D02*
X002545Y009952D01*
X002545Y009793D02*
X001160Y009793D01*
X001160Y009635D02*
X002552Y009635D01*
X002545Y009476D02*
X001160Y009476D01*
X001160Y009318D02*
X002545Y009318D01*
X002545Y009159D02*
X001160Y009159D01*
X001160Y009001D02*
X002545Y009001D01*
X002387Y008525D02*
X001160Y008525D01*
X001160Y008367D02*
X002249Y008367D01*
X002189Y008208D02*
X001160Y008208D01*
X001160Y008050D02*
X002177Y008050D01*
X002214Y007891D02*
X002047Y007891D01*
X001596Y007891D02*
X001160Y007891D01*
X001160Y007733D02*
X001313Y007733D01*
X001161Y007574D02*
X001160Y007574D01*
X001160Y006623D02*
X001253Y006623D01*
X001160Y006465D02*
X001450Y006465D01*
X001160Y008684D02*
X003298Y008684D01*
X003373Y008525D02*
X003067Y008525D01*
X003205Y008367D02*
X003223Y008367D01*
X003140Y008842D02*
X001160Y008842D01*
X001160Y011220D02*
X002472Y011220D01*
X002313Y011378D02*
X001160Y011378D01*
X001160Y011537D02*
X002155Y011537D01*
X002149Y011695D02*
X001160Y011695D01*
X001160Y011854D02*
X002149Y011854D01*
X002149Y012012D02*
X001160Y012012D01*
X001160Y012171D02*
X002149Y012171D01*
X002149Y012329D02*
X001160Y012329D01*
X001160Y012488D02*
X002149Y012488D01*
X002149Y012646D02*
X001160Y012646D01*
X001160Y012805D02*
X002082Y012805D01*
X001924Y012963D02*
X001160Y012963D01*
X001160Y013122D02*
X001714Y013122D01*
X001685Y013439D02*
X001549Y013439D01*
X001550Y013280D02*
X001160Y013280D01*
X001160Y013439D02*
X001392Y013439D01*
X001274Y013597D02*
X001160Y013597D01*
X001160Y013756D02*
X001318Y013756D01*
X001160Y013914D02*
X001476Y013914D01*
X001521Y013914D02*
X001656Y013914D01*
X001679Y013756D02*
X001815Y013756D01*
X001866Y013756D02*
X002002Y013756D01*
X002025Y013914D02*
X002160Y013914D01*
X002261Y013914D02*
X002463Y013914D01*
X002487Y014073D02*
X002487Y014073D01*
X002645Y014231D02*
X002645Y014231D01*
X002804Y014390D02*
X002804Y014390D01*
X002768Y013597D02*
X002782Y013597D01*
X002680Y013439D02*
X002944Y013439D01*
X002902Y013597D02*
X002902Y013597D01*
X003061Y013756D02*
X003061Y013756D01*
X003219Y013914D02*
X003219Y013914D01*
X003378Y014073D02*
X003378Y014073D01*
X003375Y014231D02*
X005058Y014231D01*
X004993Y014073D02*
X003523Y014073D01*
X003625Y013914D02*
X004835Y013914D01*
X004900Y014390D02*
X003672Y014390D01*
X003736Y014548D02*
X004741Y014548D01*
X004583Y014707D02*
X003711Y014707D01*
X003573Y014865D02*
X004424Y014865D01*
X004105Y016023D02*
X003105Y016023D01*
X002924Y016204D01*
X002924Y016232D01*
X002340Y018194D02*
X001160Y018194D01*
X001160Y018352D02*
X002419Y018352D01*
X002518Y018511D02*
X001160Y018511D01*
X001160Y019629D02*
X001160Y019873D01*
X001176Y019865D01*
X001242Y019844D01*
X001310Y019833D01*
X001605Y019833D01*
X001854Y019833D01*
X001694Y019673D01*
X001265Y019673D01*
X001160Y019629D01*
X001160Y019779D02*
X001800Y019779D01*
X001605Y019833D02*
X001605Y020273D01*
X001605Y020713D01*
X001605Y020273D01*
X001605Y020273D01*
X001605Y020273D01*
X001605Y019833D01*
X001605Y019937D02*
X001605Y019937D01*
X001605Y020096D02*
X001605Y020096D01*
X001605Y020254D02*
X001605Y020254D01*
X001605Y020413D02*
X001605Y020413D01*
X001605Y020571D02*
X001605Y020571D01*
X001605Y021273D02*
X001605Y024398D01*
X002105Y024898D01*
X002130Y024898D01*
X002360Y024534D02*
X002900Y024534D01*
X002956Y024478D02*
X003304Y024478D01*
X003550Y024724D01*
X003550Y025072D01*
X003304Y025318D01*
X002956Y025318D01*
X002710Y025072D01*
X002710Y024724D01*
X002956Y024478D01*
X002956Y024318D02*
X002710Y024072D01*
X002710Y023724D01*
X002956Y023478D01*
X003304Y023478D01*
X003550Y023724D01*
X003550Y024072D01*
X003304Y024318D01*
X002956Y024318D01*
X002855Y024217D02*
X002405Y024217D01*
X002550Y024058D02*
X002710Y024058D01*
X002710Y023900D02*
X002550Y023900D01*
X002550Y023741D02*
X002710Y023741D01*
X002851Y023583D02*
X002409Y023583D01*
X002518Y024692D02*
X002742Y024692D01*
X002710Y024851D02*
X002550Y024851D01*
X002550Y025009D02*
X002710Y025009D01*
X002806Y025168D02*
X002454Y025168D01*
X001851Y023583D02*
X001825Y023583D01*
X001825Y023424D02*
X003910Y023424D01*
X003910Y023266D02*
X001825Y023266D01*
X001825Y023107D02*
X003910Y023107D01*
X003910Y022949D02*
X001825Y022949D01*
X001825Y022790D02*
X003910Y022790D01*
X003910Y022632D02*
X001825Y022632D01*
X001825Y022473D02*
X003910Y022473D01*
X003910Y022315D02*
X001825Y022315D01*
X001825Y022156D02*
X003910Y022156D01*
X003910Y021998D02*
X001825Y021998D01*
X001825Y021839D02*
X003860Y021839D01*
X003702Y021681D02*
X001825Y021681D01*
X001982Y020888D02*
X002909Y020888D01*
X002751Y020730D02*
X001160Y020730D01*
X001160Y020888D02*
X001228Y020888D01*
X001160Y021681D02*
X001385Y021681D01*
X001385Y021839D02*
X001160Y021839D01*
X001160Y021998D02*
X001385Y021998D01*
X001385Y022156D02*
X001160Y022156D01*
X001160Y022315D02*
X001385Y022315D01*
X001385Y022473D02*
X001160Y022473D01*
X001160Y022632D02*
X001385Y022632D01*
X001385Y022790D02*
X001160Y022790D01*
X001160Y022949D02*
X001385Y022949D01*
X001385Y023107D02*
X001160Y023107D01*
X001160Y023266D02*
X001385Y023266D01*
X001385Y023424D02*
X001160Y023424D01*
X001160Y023583D02*
X001385Y023583D01*
X001385Y023741D02*
X001160Y023741D01*
X001160Y023900D02*
X001385Y023900D01*
X001385Y024058D02*
X001160Y024058D01*
X001160Y024217D02*
X001385Y024217D01*
X001385Y024375D02*
X001160Y024375D01*
X001160Y024534D02*
X001430Y024534D01*
X001588Y024692D02*
X001160Y024692D01*
X002181Y021522D02*
X003543Y021522D01*
X003385Y021364D02*
X002260Y021364D01*
X002265Y021205D02*
X003226Y021205D01*
X003068Y021047D02*
X002204Y021047D01*
X002189Y020571D02*
X002592Y020571D01*
X002434Y020413D02*
X002282Y020413D01*
X001605Y019273D02*
X004130Y021798D01*
X004130Y023898D01*
X003900Y024534D02*
X003360Y024534D01*
X003405Y024217D02*
X003855Y024217D01*
X003742Y024692D02*
X003518Y024692D01*
X003550Y024851D02*
X003710Y024851D01*
X003710Y025009D02*
X003550Y025009D01*
X003454Y025168D02*
X003806Y025168D01*
X003710Y024058D02*
X003550Y024058D01*
X003550Y023900D02*
X003710Y023900D01*
X003710Y023741D02*
X003550Y023741D01*
X003409Y023583D02*
X003851Y023583D01*
X003849Y021205D02*
X003945Y021205D01*
X004006Y021047D02*
X003690Y021047D01*
X003532Y020888D02*
X004228Y020888D01*
X005338Y017731D02*
X004729Y017122D01*
X004646Y017122D01*
X004868Y016900D02*
X004882Y016900D01*
X005130Y017148D01*
X005830Y017148D01*
X005863Y017181D01*
X005744Y016767D02*
X005609Y016767D01*
X005585Y016926D02*
X005394Y016926D01*
X005468Y016609D02*
X005468Y016609D01*
X005740Y016609D02*
X007100Y016609D01*
X007100Y016767D02*
X005982Y016767D01*
X006016Y017877D02*
X006027Y017877D01*
X006175Y018035D02*
X006185Y018035D01*
X006333Y018194D02*
X006344Y018194D01*
X006751Y016450D02*
X007100Y016450D01*
X007100Y016292D02*
X006798Y016292D01*
X006767Y016133D02*
X007100Y016133D01*
X007100Y015975D02*
X006700Y015975D01*
X006918Y015585D02*
X006204Y014872D01*
X006204Y014732D01*
X006424Y014390D02*
X007100Y014390D01*
X007100Y014548D02*
X006572Y014548D01*
X006584Y014707D02*
X007100Y014707D01*
X007100Y014865D02*
X006509Y014865D01*
X006667Y015024D02*
X007100Y015024D01*
X007100Y015182D02*
X006826Y015182D01*
X006575Y014231D02*
X007100Y014231D01*
X007100Y014073D02*
X006575Y014073D01*
X006575Y013914D02*
X007100Y013914D01*
X007100Y013756D02*
X006575Y013756D01*
X006575Y013597D02*
X007100Y013597D01*
X007100Y013439D02*
X006575Y013439D01*
X006610Y013280D02*
X007100Y013280D01*
X007100Y013122D02*
X006673Y013122D01*
X006649Y012963D02*
X007100Y012963D01*
X007100Y012805D02*
X006509Y012805D01*
X005980Y013648D02*
X005953Y013648D01*
X005536Y014064D01*
X005536Y014092D01*
X005759Y014287D02*
X005759Y014306D01*
X005564Y013280D02*
X005304Y013280D01*
X005146Y013122D02*
X005722Y013122D01*
X005760Y012963D02*
X004987Y012963D01*
X004829Y012805D02*
X005760Y012805D01*
X005760Y012329D02*
X004810Y012329D01*
X004968Y012171D02*
X004971Y012171D01*
X005139Y012171D02*
X005760Y012171D01*
X005760Y012012D02*
X005381Y012012D01*
X005454Y011854D02*
X005760Y011854D01*
X005760Y011695D02*
X005455Y011695D01*
X005385Y011537D02*
X005760Y011537D01*
X005760Y011378D02*
X005148Y011378D01*
X005522Y010586D02*
X003894Y010586D01*
X004053Y010744D02*
X004196Y010744D01*
X004020Y011023D02*
X002980Y009983D01*
X002980Y009313D02*
X003661Y008632D01*
X003661Y008093D01*
X003473Y007416D02*
X004737Y007416D01*
X004631Y006940D02*
X003579Y006940D01*
X003616Y007099D02*
X004594Y007099D01*
X004623Y007257D02*
X003587Y007257D01*
X003453Y006782D02*
X004757Y006782D01*
X006017Y006465D02*
X002193Y006465D01*
X002482Y007574D02*
X002543Y007574D01*
X002717Y007574D02*
X002737Y007574D01*
X002737Y007733D02*
X002717Y007733D01*
X002717Y007891D02*
X002737Y007891D01*
X002737Y008050D02*
X002717Y008050D01*
X002717Y008208D02*
X002737Y008208D01*
X002737Y008367D02*
X002717Y008367D01*
X002717Y008525D02*
X002737Y008525D01*
X003145Y007733D02*
X003300Y007733D01*
X001838Y013597D02*
X001708Y013597D01*
X001635Y014073D02*
X001160Y014073D01*
X001160Y014231D02*
X001842Y014231D01*
X001895Y014231D02*
X002205Y014231D01*
X002102Y014073D02*
X002307Y014073D01*
X002046Y014390D02*
X001160Y014390D01*
X001160Y014548D02*
X001888Y014548D01*
X001876Y014707D02*
X001160Y014707D01*
X001160Y014865D02*
X002035Y014865D01*
X004105Y016023D02*
X004230Y016148D01*
X005543Y015409D02*
X005543Y015398D01*
X005543Y015409D02*
X005568Y015372D01*
X005541Y017401D02*
X005551Y017401D01*
X006480Y015839D02*
X006204Y015563D01*
X006480Y015839D02*
X006480Y016273D01*
X006614Y007891D02*
X007100Y007891D01*
X007100Y007733D02*
X006897Y007733D01*
X007049Y007574D02*
X007100Y007574D01*
X007074Y006782D02*
X007100Y006782D01*
X007100Y006623D02*
X006957Y006623D01*
X007100Y006465D02*
X006760Y006465D01*
D22*
X006668Y010335D03*
X006355Y013085D03*
X005980Y013648D03*
X005543Y015398D03*
X006480Y016273D03*
X006918Y015585D03*
X006918Y014523D03*
X005355Y021523D03*
X005730Y021773D03*
X004230Y018148D03*
X004230Y016148D03*
X003480Y017648D03*
X003418Y015585D03*
X003418Y014585D03*
X004230Y013710D03*
X003855Y011773D03*
X004355Y011023D03*
X004105Y006710D03*
X002980Y011023D03*
X001293Y014523D03*
X001480Y017023D03*
X002730Y017585D03*
X002730Y018273D03*
M02*
